<svg width="20" height="37" viewBox="0 0 20 37" fill="none" xmlns="http://www.w3.org/2000/svg">
<path d="M2.39526 25.133C2.92007 22.9417 3.73095 21.1931 4.82791 19.8874C5.95857 18.5897 7.43373 17.2676 9.2534 15.921C10.3883 15.0521 11.2307 14.3627 11.7806 13.8527C12.7213 12.9017 13.3087 11.9373 13.5429 10.9596C13.8093 9.84706 13.6605 8.83113 13.0965 7.91181C12.5661 7.00056 11.8795 6.44401 11.0367 6.24216C9.72187 5.92727 8.66344 6.03026 7.86141 6.55112C7.05937 7.07198 6.52917 7.87182 6.2708 8.95065L0.606966 7.59421C0.99452 5.97597 1.68691 4.57332 2.68414 3.38627C3.68944 2.1655 4.96325 1.31204 6.50556 0.825883C8.08158 0.3478 9.83042 0.338869 11.7521 0.79909C13.4715 1.21087 14.9679 2.03266 16.2413 3.26446C17.5229 4.46255 18.4283 5.8914 18.9577 7.551C19.487 9.21059 19.558 10.8495 19.1704 12.4677C18.7102 14.3894 17.7132 16.0221 16.1794 17.3658C15.3289 18.089 14.2229 18.9113 12.8615 19.8329C11.8425 20.5157 11.058 21.1121 10.5081 21.622C10 22.1063 9.48191 22.8556 8.95383 23.8698C8.43383 24.8503 7.96391 26.2171 7.54405 27.9702C7.54405 27.9702 7.39469 28.5939 7.09595 29.8413L6.78106 31.1562L1.26893 29.836L2.39526 25.133ZM5.69254 34.5849C5.53106 35.2592 5.13692 35.7886 4.51011 36.1732C3.8833 36.5578 3.2159 36.6653 2.50792 36.4958C1.83365 36.3343 1.30423 35.9401 0.919638 35.3133C0.535049 34.6865 0.423495 34.036 0.584976 33.3617C0.754531 32.6537 1.15271 32.1074 1.77952 31.7229C2.40633 31.3383 3.05687 31.2267 3.73114 31.3882C4.43912 31.5577 4.9854 31.9559 5.36999 32.5827C5.75458 33.2095 5.8621 33.8769 5.69254 34.5849Z" fill="#6401C7"/>
</svg>
