<svg width="53" height="15" viewBox="0 0 53 15" fill="none" xmlns="http://www.w3.org/2000/svg">
<path d="M2.97674 10.295C3.04007 10.8523 3.26807 11.302 3.66074 11.644C4.05341 11.986 4.56641 12.157 5.19974 12.157C5.73174 12.157 6.16241 12.0683 6.49174 11.891C6.83374 11.7137 7.08074 11.4983 7.23274 11.245C7.38474 10.9917 7.46074 10.7447 7.46074 10.504C7.46074 9.94667 7.32141 9.48433 7.04274 9.117C6.77674 8.737 6.44107 8.43933 6.03574 8.224C5.64307 7.996 5.10474 7.73633 4.42074 7.445C3.67341 7.12833 3.07807 6.84333 2.63474 6.59C2.20407 6.324 1.83041 5.96933 1.51374 5.526C1.20974 5.07 1.05774 4.49367 1.05774 3.797C1.05774 3.23967 1.21607 2.714 1.53274 2.22C1.8494 1.71333 2.33074 1.30167 2.97674 0.984999C3.62274 0.668332 4.41441 0.509999 5.35174 0.509999C5.97241 0.509999 6.48541 0.554333 6.89074 0.643C7.29607 0.731666 7.70774 0.877333 8.12574 1.08L7.46074 3.056C7.00474 2.904 6.63107 2.79633 6.33974 2.733C6.06107 2.66967 5.73807 2.638 5.37074 2.638C4.64874 2.638 4.11674 2.76467 3.77474 3.018C3.43274 3.27133 3.28074 3.59433 3.31874 3.987C3.35674 4.30367 3.54674 4.576 3.88874 4.804C4.24341 5.032 4.78807 5.31067 5.52274 5.64C6.38407 6.02 7.09974 6.381 7.66974 6.723C8.23974 7.065 8.72741 7.53367 9.13274 8.129C9.55074 8.72433 9.75974 9.45267 9.75974 10.314C9.75974 11.4413 9.38607 12.3723 8.63874 13.107C7.89141 13.8417 6.75141 14.209 5.21874 14.209C4.28141 14.209 3.47707 14.038 2.80574 13.696C2.14707 13.3413 1.6404 12.8917 1.28574 12.347C0.943738 11.7897 0.760072 11.2133 0.734738 10.618L2.97674 10.295ZM16.3631 13.886C16.3251 13.8987 16.1795 13.9557 15.9261 14.057C15.6728 14.1583 15.3435 14.209 14.9381 14.209C12.5568 14.209 11.3661 13.05 11.3661 10.732V4.481H13.4561V10.428C13.4561 11.0107 13.5575 11.4413 13.7601 11.72C13.9755 11.9987 14.3681 12.138 14.9381 12.138C15.5081 12.138 15.8881 11.986 16.0781 11.682C16.2681 11.3653 16.3631 10.922 16.3631 10.352V4.481H18.4531V14H16.4961L16.3631 13.886ZM27.6732 11.017C27.6732 11.663 27.5402 12.2077 27.2742 12.651C27.0082 13.0943 26.6472 13.43 26.1912 13.658C25.7858 13.8607 25.3742 14.0063 24.9562 14.095C24.5508 14.1837 24.1138 14.228 23.6452 14.228C23.1765 14.228 22.5305 14.1837 21.7072 14.095L20.6622 14V0.699999H22.7522V4.5C23.3095 4.37333 23.8162 4.31 24.2722 4.31C24.9182 4.31 25.5135 4.43667 26.0582 4.69C27.1348 5.184 27.6732 6.096 27.6732 7.426V11.017ZM25.6022 8.015C25.6022 7.445 25.4438 7.03967 25.1272 6.799C24.8105 6.54567 24.4242 6.419 23.9682 6.419C23.7148 6.419 23.4742 6.45067 23.2462 6.514C23.0182 6.57733 22.8535 6.65333 22.7522 6.742V12.176C22.9675 12.2393 23.2272 12.271 23.5312 12.271C24.0632 12.271 24.5382 12.176 24.9562 11.986C25.3868 11.7833 25.6022 11.473 25.6022 11.055V8.015ZM39.6684 8.224C39.6684 7.54 39.5734 7.046 39.3834 6.742C39.2061 6.438 38.9147 6.286 38.5094 6.286C38.2181 6.286 37.8254 6.37467 37.3314 6.552L37.0084 6.685C37.0337 6.761 37.0527 6.84967 37.0654 6.951C37.0781 7.05233 37.0844 7.14733 37.0844 7.236V14H34.9944V8.281C34.9944 7.64767 34.8487 7.16 34.5574 6.818C34.2661 6.476 33.8734 6.305 33.3794 6.305C32.9361 6.305 32.4737 6.44433 31.9924 6.723V14H29.9024V4.481H31.7454L31.9924 4.614C32.4104 4.424 32.8854 4.329 33.4174 4.329C33.8481 4.329 34.2661 4.405 34.6714 4.557C35.0767 4.69633 35.4314 4.92433 35.7354 5.241C35.9127 5.13967 36.1787 5.00033 36.5334 4.823C37.2807 4.481 38.0027 4.31 38.6994 4.31C39.5987 4.31 40.3334 4.58867 40.9034 5.146C41.4734 5.69067 41.7584 6.45067 41.7584 7.426V14H39.6684V8.224ZM45.1254 2.752C44.8214 2.752 44.5554 2.638 44.3274 2.41C44.0994 2.182 43.9854 1.916 43.9854 1.612C43.9854 1.32067 44.0994 1.06733 44.3274 0.851999C44.5554 0.623999 44.8214 0.509999 45.1254 0.509999C45.4168 0.509999 45.6701 0.623999 45.8854 0.851999C46.1134 1.06733 46.2274 1.32067 46.2274 1.612C46.2274 1.916 46.1134 2.182 45.8854 2.41C45.6701 2.638 45.4168 2.752 45.1254 2.752ZM44.0234 4.481H46.1134V14H44.0234V4.481ZM51.4784 14.247C49.5531 14.209 48.5904 13.2907 48.5904 11.492V0.699999H50.7184V4.481H52.5234L52.0674 6.438H50.7184V11.492C50.7184 11.9227 50.8387 12.214 51.0794 12.366C51.3201 12.5053 51.6621 12.575 52.1054 12.575L51.4784 14.247Z" fill="white"/>
</svg>
