<svg width="67" height="22" viewBox="0 0 67 22" fill="none" xmlns="http://www.w3.org/2000/svg">
<path d="M2.83456 16H0.810563V0.248H2.83456V16ZM15.8978 2.734L13.3238 9.84H18.5598L15.9858 2.734H15.8978ZM11.1018 16H8.85775L14.7978 0.248H17.0858L23.0258 16H20.7818L19.2638 11.732H12.6418L11.1018 16ZM29.1462 14.504C30.1436 14.504 30.9576 14.1447 31.5882 13.426C32.2482 12.7073 32.5782 11.7687 32.5782 10.61C32.5782 9.48067 32.2482 8.54933 31.5882 7.816C30.9429 7.08267 30.1289 6.716 29.1462 6.716C28.1782 6.716 27.3642 7.08267 26.7042 7.816C26.0442 8.54933 25.7142 9.48067 25.7142 10.61C25.7142 11.754 26.0442 12.6853 26.7042 13.404C27.3642 14.1373 28.1782 14.504 29.1462 14.504ZM29.0802 21.104C28.4789 21.104 27.9142 21.0233 27.3862 20.862C26.8582 20.7153 26.3742 20.5027 25.9342 20.224C25.5089 19.9453 25.1422 19.6153 24.8342 19.234C24.5262 18.8527 24.2916 18.4273 24.1302 17.958L26.0442 17.166C26.2642 17.7967 26.6456 18.3027 27.1882 18.684C27.7309 19.0653 28.3616 19.256 29.0802 19.256C30.1802 19.256 31.0382 18.926 31.6542 18.266C32.2702 17.606 32.5782 16.6967 32.5782 15.538V14.504H32.4902C32.1089 15.076 31.5882 15.5307 30.9282 15.868C30.2829 16.1907 29.5789 16.352 28.8162 16.352C27.4082 16.352 26.1982 15.802 25.1862 14.702C24.1889 13.5727 23.6902 12.2087 23.6902 10.61C23.6902 9.01133 24.1889 7.65467 25.1862 6.54C26.1982 5.42533 27.4082 4.868 28.8162 4.868C29.5789 4.868 30.2829 5.03667 30.9282 5.374C31.5882 5.69667 32.1089 6.144 32.4902 6.716H32.5782V5.22H34.5142V15.538C34.5142 17.2687 34.0229 18.6253 33.0402 19.608C32.0429 20.6053 30.7229 21.104 29.0802 21.104ZM39.006 16H36.982V5.22H38.918V6.98H39.006C39.2113 6.408 39.6293 5.924 40.26 5.528C40.9053 5.11733 41.536 4.912 42.152 4.912C42.7387 4.912 43.2373 5 43.648 5.176L43.032 7.134C42.7827 7.03133 42.3867 6.98 41.844 6.98C41.0813 6.98 40.414 7.288 39.842 7.904C39.2847 8.52 39.006 9.23867 39.006 10.06V16ZM49.1482 16.352C47.5642 16.352 46.2588 15.8093 45.2322 14.724C44.2055 13.6387 43.6922 12.2673 43.6922 10.61C43.6922 8.96733 44.1908 7.60333 45.1882 6.518C46.1855 5.418 47.4615 4.868 49.0162 4.868C50.6148 4.868 51.8835 5.38867 52.8222 6.43C53.7755 7.45667 54.2522 8.90133 54.2522 10.764L54.2302 10.984H45.7602C45.7895 12.04 46.1415 12.8907 46.8162 13.536C47.4908 14.1813 48.2975 14.504 49.2362 14.504C50.5268 14.504 51.5388 13.8587 52.2722 12.568L54.0762 13.448C53.5922 14.3573 52.9175 15.0687 52.0522 15.582C51.2015 16.0953 50.2335 16.352 49.1482 16.352ZM45.9142 9.312H52.0962C52.0375 8.564 51.7295 7.948 51.1722 7.464C50.6295 6.96533 49.8962 6.716 48.9722 6.716C48.2095 6.716 47.5495 6.95067 46.9922 7.42C46.4495 7.88933 46.0902 8.52 45.9142 9.312ZM61.0505 16.352C59.4665 16.352 58.1612 15.8093 57.1345 14.724C56.1078 13.6387 55.5945 12.2673 55.5945 10.61C55.5945 8.96733 56.0932 7.60333 57.0905 6.518C58.0878 5.418 59.3638 4.868 60.9185 4.868C62.5172 4.868 63.7858 5.38867 64.7245 6.43C65.6778 7.45667 66.1545 8.90133 66.1545 10.764L66.1325 10.984H57.6625C57.6918 12.04 58.0438 12.8907 58.7185 13.536C59.3932 14.1813 60.1998 14.504 61.1385 14.504C62.4292 14.504 63.4412 13.8587 64.1745 12.568L65.9785 13.448C65.4945 14.3573 64.8198 15.0687 63.9545 15.582C63.1038 16.0953 62.1358 16.352 61.0505 16.352ZM57.8165 9.312H63.9985C63.9398 8.564 63.6318 7.948 63.0745 7.464C62.5318 6.96533 61.7985 6.716 60.8745 6.716C60.1118 6.716 59.4518 6.95067 58.8945 7.42C58.3518 7.88933 57.9925 8.52 57.8165 9.312Z" fill="white"/>
</svg>
