<svg width="40" height="15" viewBox="0 0 40 15" fill="none" xmlns="http://www.w3.org/2000/svg">
<path d="M0.123859 0.396H3.10686L8.57886 9.516H8.73086L8.57886 6.894V0.396H11.1249V14H8.42686L2.65086 4.367H2.49886L2.65086 6.989V14H0.123859V0.396ZM22.3663 11.758C21.9357 12.518 21.353 13.1323 20.6183 13.601C19.8963 14.0697 19.0097 14.304 17.9583 14.304C17.249 14.304 16.5903 14.1837 15.9823 13.943C15.387 13.6897 14.8677 13.3413 14.4243 12.898C13.981 12.4547 13.6327 11.9353 13.3793 11.34C13.1387 10.732 13.0183 10.067 13.0183 9.345C13.0183 8.67367 13.1387 8.04033 13.3793 7.445C13.62 6.837 13.9557 6.31133 14.3863 5.868C14.817 5.412 15.3237 5.051 15.9063 4.785C16.5017 4.519 17.154 4.386 17.8633 4.386C18.6107 4.386 19.2757 4.51267 19.8583 4.766C20.441 5.00667 20.9287 5.34867 21.3213 5.792C21.714 6.22267 22.0117 6.73567 22.2143 7.331C22.417 7.92633 22.5183 8.57233 22.5183 9.269C22.5183 9.35767 22.5183 9.43367 22.5183 9.497C22.5057 9.573 22.4993 9.64267 22.4993 9.706C22.4867 9.76933 22.4803 9.839 22.4803 9.915H15.4693C15.52 10.295 15.6213 10.6243 15.7733 10.903C15.938 11.169 16.1343 11.397 16.3623 11.587C16.603 11.7643 16.8627 11.8973 17.1413 11.986C17.42 12.062 17.705 12.1 17.9963 12.1C18.5663 12.1 19.035 11.9733 19.4023 11.72C19.7823 11.454 20.08 11.1247 20.2953 10.732L22.3663 11.758ZM20.1053 8.148C20.0927 7.98333 20.0357 7.79967 19.9343 7.597C19.8457 7.39433 19.7063 7.20433 19.5163 7.027C19.339 6.84967 19.111 6.704 18.8323 6.59C18.5663 6.476 18.2433 6.419 17.8633 6.419C17.3313 6.419 16.8627 6.571 16.4573 6.875C16.052 7.179 15.767 7.60333 15.6023 8.148H20.1053ZM26.2404 9.269L23.0484 4.69H25.9934L27.6844 7.274H27.8174L29.4134 4.69H32.4534L29.1854 9.269L32.4534 14H29.5274L27.7794 11.34H27.6464L25.9554 14H23.0104L26.2404 9.269ZM34.7082 6.818H33.0742V4.69H34.7082V1.84H37.1972V4.69H39.4772V6.818H37.1972V10.428C37.1972 10.6433 37.2162 10.846 37.2542 11.036C37.3048 11.2133 37.3935 11.3653 37.5202 11.492C37.6975 11.6947 37.9508 11.796 38.2802 11.796C38.4955 11.796 38.6665 11.777 38.7932 11.739C38.9198 11.6883 39.0402 11.625 39.1542 11.549L39.8572 13.734C39.5658 13.8733 39.2492 13.9747 38.9072 14.038C38.5778 14.114 38.2105 14.152 37.8052 14.152C37.3365 14.152 36.9122 14.0823 36.5322 13.943C36.1648 13.791 35.8545 13.5883 35.6012 13.335C35.0058 12.765 34.7082 11.9543 34.7082 10.903V6.818Z" fill="white"/>
</svg>
