<svg width="156" height="14" viewBox="0 0 156 14" fill="none" xmlns="http://www.w3.org/2000/svg">
<path d="M9.30881 3.038C9.02547 2.94733 8.72514 2.868 8.4078 2.8C8.09047 2.72067 7.73914 2.65833 7.3538 2.613C6.9798 2.55633 6.58314 2.528 6.1638 2.528C5.4838 2.528 4.9058 2.67533 4.4298 2.97C3.9538 3.26467 3.5628 3.64433 3.2568 4.109C2.96214 4.56233 2.7468 5.07233 2.6108 5.639C2.4748 6.20567 2.4068 6.76667 2.4068 7.322C2.4068 8.02467 2.50314 8.665 2.6958 9.243C2.8998 9.80967 3.1718 10.297 3.5118 10.705C3.86314 11.1017 4.26547 11.4077 4.7188 11.623C5.18347 11.8383 5.67081 11.946 6.18081 11.946C6.65681 11.946 7.09314 11.9233 7.48981 11.878C7.88647 11.8213 8.22647 11.7647 8.5098 11.708C8.83847 11.64 9.13314 11.5607 9.39381 11.47L9.6828 12.677C9.37681 12.779 9.03681 12.8697 8.6628 12.949C8.34547 13.017 7.97714 13.0793 7.55781 13.136C7.13847 13.1927 6.67947 13.221 6.18081 13.221C5.28547 13.221 4.4978 13.0737 3.8178 12.779C3.14914 12.4843 2.58814 12.0763 2.1348 11.555C1.6928 11.0223 1.35847 10.399 1.1318 9.685C0.905138 8.95967 0.791805 8.16633 0.791805 7.305C0.791805 6.319 0.927805 5.452 1.1998 4.704C1.4718 3.94467 1.8458 3.31 2.3218 2.8C2.7978 2.29 3.36447 1.90467 4.0218 1.644C4.67914 1.38333 5.39881 1.253 6.18081 1.253C6.65681 1.253 7.09881 1.28133 7.5068 1.338C7.92614 1.38333 8.3058 1.44567 8.6458 1.525C8.99714 1.60433 9.32014 1.68933 9.61481 1.78L9.30881 3.038ZM11.3592 5.826C11.3592 5.56533 11.3308 5.15733 11.2742 4.602L12.5322 4.432L12.6682 5.673H12.6852C12.8892 5.41233 13.0875 5.18567 13.2802 4.993C13.4728 4.80033 13.6712 4.636 13.8752 4.5C14.0905 4.35267 14.2945 4.279 14.4872 4.279C14.7478 4.26767 15.1105 4.296 15.5752 4.364L15.2692 5.673C14.8952 5.605 14.6345 5.57667 14.4872 5.588C14.2945 5.588 14.0905 5.67867 13.8752 5.86C13.6598 6.04133 13.4728 6.234 13.3142 6.438C13.1102 6.68733 12.9118 6.97067 12.7192 7.288V13H11.3592V5.826ZM23.1447 12.796C22.884 12.8753 22.612 12.9433 22.3287 13C22.0567 13.0567 21.7507 13.1077 21.4107 13.153C21.082 13.1983 20.7363 13.221 20.3737 13.221C19.807 13.221 19.28 13.1417 18.7927 12.983C18.3053 12.8243 17.8803 12.5693 17.5177 12.218C17.155 11.8667 16.866 11.4133 16.6507 10.858C16.4467 10.2913 16.3447 9.6 16.3447 8.784C16.3447 8.04733 16.4467 7.40133 16.6507 6.846C16.8547 6.27933 17.1323 5.809 17.4837 5.435C17.8463 5.04967 18.2657 4.76067 18.7417 4.568C19.229 4.37533 19.756 4.279 20.3227 4.279C20.878 4.279 21.3597 4.38667 21.7677 4.602C22.1757 4.81733 22.51 5.112 22.7707 5.486C23.0427 5.84867 23.241 6.27933 23.3657 6.778C23.5017 7.26533 23.5697 7.781 23.5697 8.325L23.3147 9.073H17.8237C17.8237 9.42433 17.869 9.77567 17.9597 10.127C18.0503 10.4783 18.2033 10.7957 18.4187 11.079C18.6453 11.3623 18.9343 11.5947 19.2857 11.776C19.6483 11.946 20.096 12.031 20.6287 12.031C20.9687 12.031 21.2803 12.014 21.5637 11.98C21.847 11.9347 22.0907 11.8893 22.2947 11.844C22.51 11.7873 22.7083 11.725 22.8897 11.657L23.1447 12.796ZM22.1587 7.985C22.1587 7.90567 22.1417 7.73 22.1077 7.458C22.0737 7.186 21.9943 6.90267 21.8697 6.608C21.745 6.31333 21.5523 6.05267 21.2917 5.826C21.031 5.588 20.6853 5.469 20.2547 5.469C19.7787 5.469 19.3877 5.571 19.0817 5.775C18.7757 5.96767 18.532 6.2 18.3507 6.472C18.1693 6.744 18.0447 7.02167 17.9767 7.305C17.9087 7.58833 17.8747 7.815 17.8747 7.985H22.1587ZM30.1803 9.073C29.9536 9.08433 29.7383 9.09567 29.5343 9.107C29.3303 9.11833 29.1263 9.13533 28.9223 9.158C28.7296 9.16933 28.554 9.18633 28.3953 9.209C27.5793 9.311 27.0013 9.49233 26.6613 9.753C26.3213 10.0023 26.1513 10.365 26.1513 10.841C26.1513 11.2377 26.2703 11.538 26.5083 11.742C26.7576 11.9347 27.0806 12.031 27.4773 12.031C28.0213 12.031 28.503 11.9403 28.9223 11.759C29.353 11.5663 29.7723 11.317 30.1803 11.011V9.073ZM30.1633 12.201C29.6306 12.507 29.132 12.7563 28.6673 12.949C28.214 13.1303 27.721 13.221 27.1883 13.221C26.429 13.221 25.8226 13.0397 25.3693 12.677C24.9273 12.303 24.7063 11.691 24.7063 10.841C24.7063 10.399 24.8196 10.0137 25.0463 9.685C25.273 9.35633 25.5676 9.08433 25.9303 8.869C26.3043 8.64233 26.7236 8.46667 27.1883 8.342C27.653 8.21733 28.129 8.138 28.6163 8.104C28.8203 8.08133 29.0866 8.06433 29.4153 8.053C29.744 8.03033 29.999 8.01333 30.1803 8.002C30.1803 7.60533 30.169 7.254 30.1463 6.948C30.1236 6.63067 30.0556 6.36433 29.9423 6.149C29.829 5.92233 29.659 5.75233 29.4323 5.639C29.217 5.52567 28.9053 5.469 28.4973 5.469C28.1686 5.469 27.8513 5.49167 27.5453 5.537C27.2393 5.571 26.9673 5.61067 26.7293 5.656C26.446 5.71267 26.1853 5.775 25.9473 5.843L25.6753 4.67C25.9586 4.602 26.2646 4.53967 26.5933 4.483C26.8766 4.42633 27.2053 4.381 27.5793 4.347C27.9533 4.30167 28.3556 4.279 28.7863 4.279C29.3643 4.279 29.829 4.364 30.1803 4.534C30.543 4.704 30.8206 4.93633 31.0133 5.231C31.2173 5.51433 31.3533 5.843 31.4213 6.217C31.5006 6.57967 31.5403 6.965 31.5403 7.373V11.453C31.5403 11.6117 31.5403 11.7817 31.5403 11.963C31.5516 12.133 31.563 12.303 31.5743 12.473C31.597 12.643 31.6196 12.8187 31.6423 13L30.3333 13.136L30.1633 12.201ZM35.9259 1.899V4.449H38.3909V5.554H35.9259V10.093C35.9259 10.467 35.9316 10.7787 35.9429 11.028C35.9656 11.2773 36.0052 11.4757 36.0619 11.623C36.1186 11.7703 36.1979 11.878 36.2999 11.946C36.4019 12.0027 36.5322 12.031 36.6909 12.031C37.1216 12.0197 37.6202 11.861 38.1869 11.555L38.5949 12.592C38.2209 12.8413 37.8696 13.0057 37.5409 13.085C37.2236 13.1757 36.9062 13.221 36.5889 13.221C35.8409 13.221 35.3139 13.0113 35.0079 12.592C34.7132 12.1613 34.5659 11.453 34.5659 10.467V5.554H33.0019V4.449H34.5659V2.069L35.9259 1.899ZM46.3869 12.796C46.1262 12.8753 45.8542 12.9433 45.5709 13C45.2989 13.0567 44.9929 13.1077 44.6529 13.153C44.3242 13.1983 43.9785 13.221 43.6159 13.221C43.0492 13.221 42.5222 13.1417 42.0349 12.983C41.5475 12.8243 41.1225 12.5693 40.7599 12.218C40.3972 11.8667 40.1082 11.4133 39.8929 10.858C39.6889 10.2913 39.5869 9.6 39.5869 8.784C39.5869 8.04733 39.6889 7.40133 39.8929 6.846C40.0969 6.27933 40.3745 5.809 40.7259 5.435C41.0885 5.04967 41.5079 4.76067 41.9839 4.568C42.4712 4.37533 42.9982 4.279 43.5649 4.279C44.1202 4.279 44.6019 4.38667 45.0099 4.602C45.4179 4.81733 45.7522 5.112 46.0129 5.486C46.2849 5.84867 46.4832 6.27933 46.6079 6.778C46.7439 7.26533 46.8119 7.781 46.8119 8.325L46.5569 9.073H41.0659C41.0659 9.42433 41.1112 9.77567 41.2019 10.127C41.2925 10.4783 41.4455 10.7957 41.6609 11.079C41.8875 11.3623 42.1765 11.5947 42.5279 11.776C42.8905 11.946 43.3382 12.031 43.8709 12.031C44.2109 12.031 44.5225 12.014 44.8059 11.98C45.0892 11.9347 45.3329 11.8893 45.5369 11.844C45.7522 11.7873 45.9505 11.725 46.1319 11.657L46.3869 12.796ZM45.4009 7.985C45.4009 7.90567 45.3839 7.73 45.3499 7.458C45.3159 7.186 45.2365 6.90267 45.1119 6.608C44.9872 6.31333 44.7945 6.05267 44.5339 5.826C44.2732 5.588 43.9275 5.469 43.4969 5.469C43.0209 5.469 42.6299 5.571 42.3239 5.775C42.0179 5.96767 41.7742 6.2 41.5929 6.472C41.4115 6.744 41.2869 7.02167 41.2189 7.305C41.1509 7.58833 41.1169 7.815 41.1169 7.985H45.4009ZM52.8192 1.406H54.1792L60.2652 10.603H60.2992C60.2766 10.2743 60.2596 9.923 60.2482 9.549C60.2256 9.23167 60.2086 8.869 60.1972 8.461C60.1972 8.04167 60.1972 7.61667 60.1972 7.186V1.406H61.5572V13H60.1972L54.1112 3.769H54.0772C54.0886 4.109 54.1056 4.466 54.1282 4.84C54.1396 5.16867 54.1509 5.537 54.1622 5.945C54.1736 6.353 54.1792 6.77233 54.1792 7.203V13H52.8192V1.406ZM70.4757 12.796C70.2151 12.8753 69.9431 12.9433 69.6597 13C69.3877 13.0567 69.0817 13.1077 68.7417 13.153C68.4131 13.1983 68.0674 13.221 67.7047 13.221C67.1381 13.221 66.6111 13.1417 66.1237 12.983C65.6364 12.8243 65.2114 12.5693 64.8487 12.218C64.4861 11.8667 64.1971 11.4133 63.9817 10.858C63.7777 10.2913 63.6757 9.6 63.6757 8.784C63.6757 8.04733 63.7777 7.40133 63.9817 6.846C64.1857 6.27933 64.4634 5.809 64.8147 5.435C65.1774 5.04967 65.5967 4.76067 66.0727 4.568C66.5601 4.37533 67.0871 4.279 67.6537 4.279C68.2091 4.279 68.6907 4.38667 69.0987 4.602C69.5067 4.81733 69.8411 5.112 70.1017 5.486C70.3737 5.84867 70.5721 6.27933 70.6967 6.778C70.8327 7.26533 70.9007 7.781 70.9007 8.325L70.6457 9.073H65.1547C65.1547 9.42433 65.2001 9.77567 65.2907 10.127C65.3814 10.4783 65.5344 10.7957 65.7497 11.079C65.9764 11.3623 66.2654 11.5947 66.6167 11.776C66.9794 11.946 67.4271 12.031 67.9597 12.031C68.2997 12.031 68.6114 12.014 68.8947 11.98C69.1781 11.9347 69.4217 11.8893 69.6257 11.844C69.8411 11.7873 70.0394 11.725 70.2207 11.657L70.4757 12.796ZM69.4897 7.985C69.4897 7.90567 69.4727 7.73 69.4387 7.458C69.4047 7.186 69.3254 6.90267 69.2007 6.608C69.0761 6.31333 68.8834 6.05267 68.6227 5.826C68.3621 5.588 68.0164 5.469 67.5857 5.469C67.1097 5.469 66.7187 5.571 66.4127 5.775C66.1067 5.96767 65.8631 6.2 65.6817 6.472C65.5004 6.744 65.3757 7.02167 65.3077 7.305C65.2397 7.58833 65.2057 7.815 65.2057 7.985H69.4897ZM71.8333 4.449H73.2613L74.2643 8.308C74.355 8.63667 74.4343 8.988 74.5023 9.362C74.5817 9.72467 74.6553 10.0647 74.7233 10.382C74.7913 10.756 74.865 11.1243 74.9443 11.487H74.9613C75.0407 11.1243 75.1313 10.756 75.2333 10.382C75.324 10.0647 75.4203 9.72467 75.5223 9.362C75.6243 8.988 75.7263 8.63667 75.8283 8.308L77.0353 4.449H78.8543L79.8233 8.308C79.9027 8.63667 79.982 8.988 80.0613 9.362C80.152 9.72467 80.2257 10.0647 80.2823 10.382C80.3503 10.756 80.4183 11.1243 80.4863 11.487H80.5033C80.6053 11.113 80.713 10.739 80.8263 10.365C80.917 10.0477 81.019 9.70767 81.1323 9.345C81.2457 8.971 81.3533 8.62533 81.4553 8.308L82.6453 4.449H84.0563L81.2513 13H79.7383L78.5143 8.308C78.401 7.87733 78.3047 7.492 78.2253 7.152C78.1573 6.80067 78.095 6.506 78.0383 6.268C77.9817 5.98467 77.9307 5.73533 77.8853 5.52H77.8513C77.806 5.73533 77.7493 5.98467 77.6813 6.268C77.6247 6.506 77.5453 6.80067 77.4433 7.152C77.3413 7.492 77.228 7.87733 77.1033 8.308L75.6583 13H74.1453L71.8333 4.449ZM89.6581 1.406H92.3271C93.8004 1.406 94.8884 1.66667 95.5911 2.188C96.3051 2.70933 96.6621 3.58767 96.6621 4.823C96.6621 5.503 96.5318 6.06967 96.2711 6.523C96.0104 6.97633 95.6818 7.34467 95.2851 7.628C94.8998 7.9 94.4804 8.09833 94.0271 8.223C93.5738 8.33633 93.1544 8.393 92.7691 8.393H91.0861V13H89.6581V1.406ZM91.0861 7.118H92.6501C93.0354 7.118 93.3811 7.084 93.6871 7.016C94.0044 6.93667 94.2764 6.812 94.5031 6.642C94.7298 6.46067 94.9054 6.22267 95.0301 5.928C95.1548 5.622 95.2171 5.24233 95.2171 4.789C95.2171 4.33567 95.1491 3.973 95.0131 3.701C94.8884 3.41767 94.6958 3.20233 94.4351 3.055C94.1858 2.90767 93.8684 2.81133 93.4831 2.766C93.0978 2.70933 92.6501 2.681 92.1401 2.681H91.0861V7.118ZM103.211 9.073C102.984 9.08433 102.769 9.09567 102.565 9.107C102.361 9.11833 102.157 9.13533 101.953 9.158C101.76 9.16933 101.584 9.18633 101.426 9.209C100.61 9.311 100.032 9.49233 99.6916 9.753C99.3516 10.0023 99.1816 10.365 99.1816 10.841C99.1816 11.2377 99.3006 11.538 99.5386 11.742C99.7879 11.9347 100.111 12.031 100.508 12.031C101.052 12.031 101.533 11.9403 101.953 11.759C102.383 11.5663 102.803 11.317 103.211 11.011V9.073ZM103.194 12.201C102.661 12.507 102.162 12.7563 101.698 12.949C101.244 13.1303 100.751 13.221 100.219 13.221C99.4592 13.221 98.8529 13.0397 98.3996 12.677C97.9576 12.303 97.7366 11.691 97.7366 10.841C97.7366 10.399 97.8499 10.0137 98.0766 9.685C98.3032 9.35633 98.5979 9.08433 98.9606 8.869C99.3346 8.64233 99.7539 8.46667 100.219 8.342C100.683 8.21733 101.159 8.138 101.647 8.104C101.851 8.08133 102.117 8.06433 102.446 8.053C102.774 8.03033 103.029 8.01333 103.211 8.002C103.211 7.60533 103.199 7.254 103.177 6.948C103.154 6.63067 103.086 6.36433 102.973 6.149C102.859 5.92233 102.689 5.75233 102.463 5.639C102.247 5.52567 101.936 5.469 101.528 5.469C101.199 5.469 100.882 5.49167 100.576 5.537C100.27 5.571 99.9976 5.61067 99.7596 5.656C99.4762 5.71267 99.2156 5.775 98.9776 5.843L98.7056 4.67C98.9889 4.602 99.2949 4.53967 99.6236 4.483C99.9069 4.42633 100.236 4.381 100.61 4.347C100.984 4.30167 101.386 4.279 101.817 4.279C102.395 4.279 102.859 4.364 103.211 4.534C103.573 4.704 103.851 4.93633 104.044 5.231C104.248 5.51433 104.384 5.843 104.452 6.217C104.531 6.57967 104.571 6.965 104.571 7.373V11.453C104.571 11.6117 104.571 11.7817 104.571 11.963C104.582 12.133 104.593 12.303 104.605 12.473C104.627 12.643 104.65 12.8187 104.673 13L103.364 13.136L103.194 12.201ZM111.591 5.843C111.115 5.69567 110.69 5.59933 110.316 5.554C109.953 5.49733 109.619 5.469 109.313 5.469C108.916 5.469 108.582 5.56533 108.31 5.758C108.049 5.95067 107.919 6.2 107.919 6.506C107.93 6.778 108.049 7.01033 108.276 7.203C108.503 7.39567 108.763 7.57133 109.058 7.73C109.364 7.87733 109.698 8.04167 110.061 8.223C110.435 8.40433 110.781 8.60833 111.098 8.835C111.427 9.06167 111.693 9.33367 111.897 9.651C112.101 9.96833 112.209 10.348 112.22 10.79C112.209 11.266 112.101 11.6627 111.897 11.98C111.704 12.286 111.449 12.5353 111.132 12.728C110.826 12.9093 110.492 13.034 110.129 13.102C109.766 13.1813 109.426 13.221 109.109 13.221C108.701 13.221 108.276 13.1983 107.834 13.153C107.403 13.1077 106.939 13.0113 106.44 12.864L106.695 11.64C107.205 11.776 107.67 11.878 108.089 11.946C108.508 12.0027 108.854 12.031 109.126 12.031C109.33 12.031 109.528 12.0083 109.721 11.963C109.925 11.9177 110.106 11.8553 110.265 11.776C110.424 11.6853 110.548 11.572 110.639 11.436C110.741 11.3 110.792 11.147 110.792 10.977C110.781 10.6597 110.673 10.3933 110.469 10.178C110.265 9.95133 109.999 9.753 109.67 9.583C109.353 9.40167 109.007 9.226 108.633 9.056C108.27 8.87467 107.925 8.67067 107.596 8.444C107.279 8.206 107.012 7.92833 106.797 7.611C106.582 7.28233 106.474 6.88 106.474 6.404C106.474 6.064 106.559 5.76367 106.729 5.503C106.91 5.231 107.137 5.01 107.409 4.84C107.692 4.65867 107.998 4.52267 108.327 4.432C108.667 4.33 108.996 4.279 109.313 4.279C109.642 4.279 110.01 4.30733 110.418 4.364C110.826 4.40933 111.296 4.5 111.829 4.636L111.591 5.843ZM118.68 5.843C118.204 5.69567 117.779 5.59933 117.405 5.554C117.042 5.49733 116.708 5.469 116.402 5.469C116.005 5.469 115.671 5.56533 115.399 5.758C115.138 5.95067 115.008 6.2 115.008 6.506C115.019 6.778 115.138 7.01033 115.365 7.203C115.592 7.39567 115.852 7.57133 116.147 7.73C116.453 7.87733 116.787 8.04167 117.15 8.223C117.524 8.40433 117.87 8.60833 118.187 8.835C118.516 9.06167 118.782 9.33367 118.986 9.651C119.19 9.96833 119.298 10.348 119.309 10.79C119.298 11.266 119.19 11.6627 118.986 11.98C118.793 12.286 118.538 12.5353 118.221 12.728C117.915 12.9093 117.581 13.034 117.218 13.102C116.855 13.1813 116.515 13.221 116.198 13.221C115.79 13.221 115.365 13.1983 114.923 13.153C114.492 13.1077 114.028 13.0113 113.529 12.864L113.784 11.64C114.294 11.776 114.759 11.878 115.178 11.946C115.597 12.0027 115.943 12.031 116.215 12.031C116.419 12.031 116.617 12.0083 116.81 11.963C117.014 11.9177 117.195 11.8553 117.354 11.776C117.513 11.6853 117.637 11.572 117.728 11.436C117.83 11.3 117.881 11.147 117.881 10.977C117.87 10.6597 117.762 10.3933 117.558 10.178C117.354 9.95133 117.088 9.753 116.759 9.583C116.442 9.40167 116.096 9.226 115.722 9.056C115.359 8.87467 115.014 8.67067 114.685 8.444C114.368 8.206 114.101 7.92833 113.886 7.611C113.671 7.28233 113.563 6.88 113.563 6.404C113.563 6.064 113.648 5.76367 113.818 5.503C113.999 5.231 114.226 5.01 114.498 4.84C114.781 4.65867 115.087 4.52267 115.416 4.432C115.756 4.33 116.085 4.279 116.402 4.279C116.731 4.279 117.099 4.30733 117.507 4.364C117.915 4.40933 118.385 4.5 118.918 4.636L118.68 5.843ZM120.227 4.449H121.655L122.658 8.308C122.749 8.63667 122.828 8.988 122.896 9.362C122.975 9.72467 123.049 10.0647 123.117 10.382C123.185 10.756 123.259 11.1243 123.338 11.487H123.355C123.434 11.1243 123.525 10.756 123.627 10.382C123.718 10.0647 123.814 9.72467 123.916 9.362C124.018 8.988 124.12 8.63667 124.222 8.308L125.429 4.449H127.248L128.217 8.308C128.296 8.63667 128.376 8.988 128.455 9.362C128.546 9.72467 128.619 10.0647 128.676 10.382C128.744 10.756 128.812 11.1243 128.88 11.487H128.897C128.999 11.113 129.107 10.739 129.22 10.365C129.311 10.0477 129.413 9.70767 129.526 9.345C129.639 8.971 129.747 8.62533 129.849 8.308L131.039 4.449H132.45L129.645 13H128.132L126.908 8.308C126.795 7.87733 126.698 7.492 126.619 7.152C126.551 6.80067 126.489 6.506 126.432 6.268C126.375 5.98467 126.324 5.73533 126.279 5.52H126.245C126.2 5.73533 126.143 5.98467 126.075 6.268C126.018 6.506 125.939 6.80067 125.837 7.152C125.735 7.492 125.622 7.87733 125.497 8.308L124.052 13H122.539L120.227 4.449ZM134.864 8.767C134.864 9.86633 135.108 10.688 135.595 11.232C136.094 11.7647 136.762 12.031 137.601 12.031C138.428 12.031 139.074 11.7647 139.539 11.232C140.004 10.6993 140.236 9.90033 140.236 8.835C140.236 7.70167 139.987 6.85733 139.488 6.302C139.001 5.74667 138.332 5.469 137.482 5.469C136.632 5.469 135.98 5.74667 135.527 6.302C135.085 6.846 134.864 7.66767 134.864 8.767ZM133.419 8.75C133.419 7.88867 133.555 7.17467 133.827 6.608C134.099 6.03 134.445 5.571 134.864 5.231C135.283 4.87967 135.731 4.636 136.207 4.5C136.694 4.35267 137.153 4.279 137.584 4.279C137.992 4.279 138.434 4.347 138.91 4.483C139.397 4.60767 139.845 4.84 140.253 5.18C140.661 5.50867 141.001 5.95633 141.273 6.523C141.545 7.07833 141.681 7.78667 141.681 8.648C141.681 9.54333 141.539 10.2857 141.256 10.875C140.984 11.4643 140.638 11.9347 140.219 12.286C139.8 12.626 139.346 12.864 138.859 13C138.372 13.1473 137.918 13.221 137.499 13.221C137.068 13.221 136.615 13.153 136.139 13.017C135.663 12.881 135.221 12.6487 134.813 12.32C134.416 11.98 134.082 11.521 133.81 10.943C133.549 10.365 133.419 9.634 133.419 8.75ZM143.674 5.826C143.674 5.56533 143.645 5.15733 143.589 4.602L144.847 4.432L144.983 5.673H145C145.204 5.41233 145.402 5.18567 145.595 4.993C145.787 4.80033 145.986 4.636 146.19 4.5C146.405 4.35267 146.609 4.279 146.802 4.279C147.062 4.26767 147.425 4.296 147.89 4.364L147.584 5.673C147.21 5.605 146.949 5.57667 146.802 5.588C146.609 5.588 146.405 5.67867 146.19 5.86C145.974 6.04133 145.787 6.234 145.629 6.438C145.425 6.68733 145.226 6.97067 145.034 7.288V13H143.674V5.826ZM154.473 5.724C154.065 5.61067 153.748 5.54267 153.521 5.52C153.294 5.486 153.062 5.469 152.824 5.469C152.348 5.469 151.94 5.554 151.6 5.724C151.26 5.894 150.977 6.132 150.75 6.438C150.535 6.73267 150.376 7.07833 150.274 7.475C150.172 7.86033 150.121 8.274 150.121 8.716C150.121 9.11267 150.161 9.50933 150.24 9.906C150.331 10.3027 150.467 10.6597 150.648 10.977C150.829 11.2943 151.05 11.5493 151.311 11.742C151.572 11.9347 151.883 12.031 152.246 12.031C152.495 12.031 152.75 11.9857 153.011 11.895C153.283 11.8043 153.532 11.7023 153.759 11.589C153.986 11.4643 154.224 11.3113 154.473 11.13V5.724ZM154.49 12.32C154.229 12.5013 153.974 12.6543 153.725 12.779C153.487 12.8923 153.221 12.9943 152.926 13.085C152.643 13.1757 152.365 13.221 152.093 13.221C151.028 13.221 150.189 12.847 149.577 12.099C148.976 11.3397 148.676 10.2347 148.676 8.784C148.676 7.92267 148.812 7.203 149.084 6.625C149.367 6.047 149.719 5.588 150.138 5.248C150.557 4.89667 151.005 4.64733 151.481 4.5C151.968 4.35267 152.416 4.279 152.824 4.279C153.028 4.279 153.243 4.296 153.47 4.33C153.697 4.35267 154.031 4.42067 154.473 4.534V0.267L155.833 0.114V11.453C155.833 11.6117 155.833 11.7817 155.833 11.963C155.844 12.133 155.856 12.303 155.867 12.473C155.89 12.643 155.912 12.8187 155.935 13L154.626 13.136L154.49 12.32Z" fill="#636363"/>
</svg>
