<svg width="72" height="50" viewBox="0 0 72 50" fill="none" xmlns="http://www.w3.org/2000/svg">
<path d="M23.9896 40.1456L19.5506 37.9202C18.8856 37.5868 18.1024 38.0703 18.1024 38.8141V42.6145C18.1024 43.2458 17.5248 43.7191 16.9058 43.595L11.94 42.5992C11.3211 42.4751 10.7434 42.9484 10.7434 43.5797V47.6114C10.7434 48.2943 10.0741 48.7763 9.42643 48.5598L2.65234 46.2958C2.2175 46.1504 1.93719 45.728 1.97226 45.2709L2.60949 36.9648C2.63399 36.6454 2.81005 36.357 3.08299 36.1893L24.985 22.7297C25.2811 22.5477 25.4615 22.2252 25.4615 21.8777V13.4101C25.4615 13.0592 25.6453 12.734 25.9459 12.5532L39.7574 4.24425C40.0235 4.08413 40.3471 4.0542 40.6329 4.17583C46.3172 6.5949 56.525 14.3494 55.6705 27.8332C55.6505 28.1491 55.4749 28.4382 55.2059 28.6052L40.675 37.6245C40.3688 37.8145 39.984 37.8251 39.6678 37.6522L32.0846 33.5049M61.4029 18.1019L65.936 15.0583M66.4757 7.49515L71.0874 3.99029M55.6334 6.20388L62.3252 1.5" stroke="#6401C7" stroke-width="2"/>
<circle cx="46.1845" cy="17.64" r="2.76699" fill="#6401C7"/>
</svg>
