<svg width="34" height="15" viewBox="0 0 34 15" fill="none" xmlns="http://www.w3.org/2000/svg">
<path d="M2.22239 5.013V14H0.132391V0.699999H2.22239L7.37139 9.63V0.699999H9.48039V14H7.37139L2.22239 5.013ZM13.7818 11.169C13.7818 11.5237 13.8768 11.8023 14.0668 12.005C14.2695 12.195 14.5608 12.29 14.9408 12.29C15.5235 12.29 16.3025 12.0367 17.2778 11.53L18.0378 13.335C17.5818 13.6263 17.0625 13.848 16.4798 14C15.8971 14.152 15.3145 14.228 14.7318 14.228C13.7945 14.228 13.0471 14 12.4898 13.544C11.9451 13.0753 11.6728 12.3787 11.6728 11.454V7.559C11.6728 6.533 11.9895 5.735 12.6228 5.165C13.2688 4.595 14.1175 4.31 15.1688 4.31C16.2201 4.31 17.0371 4.595 17.6198 5.165C18.2151 5.72233 18.5128 6.50133 18.5128 7.502V10.39L13.7818 10.637V11.169ZM16.4038 7.54C16.4038 7.16 16.2835 6.86867 16.0428 6.666C15.8021 6.46333 15.5045 6.362 15.1498 6.362C14.6685 6.362 14.3201 6.48867 14.1048 6.742C13.8895 6.99533 13.7818 7.274 13.7818 7.578V8.718L16.4038 8.547V7.54ZM24.0859 11.34L22.4329 14H19.8299L22.7939 9.269L19.8299 4.481H22.4709L24.1049 7.198L25.8149 4.481H28.3989L25.3779 9.25L28.2469 14H25.7579L24.0859 11.34ZM32.8597 14.247C30.9344 14.209 29.9717 13.2907 29.9717 11.492V0.699999H32.0997V4.481H33.9047L33.4487 6.438H32.0997V11.492C32.0997 11.9227 32.2201 12.214 32.4607 12.366C32.7014 12.5053 33.0434 12.575 33.4867 12.575L32.8597 14.247Z" fill="white"/>
</svg>
