<svg width="411" height="731" viewBox="0 0 411 731" fill="none" xmlns="http://www.w3.org/2000/svg">
<g clip-path="url(#clip0)">
<rect width="411" height="731" fill="white"/>
<circle r="30.5" transform="matrix(1 0 0 -1 401.5 712.5)" fill="#6401C7"/>
<circle cx="401" cy="723" r="33.5" transform="rotate(-180 401 723)" stroke="#C390F5" stroke-width="3"/>
<rect x="40" y="180" width="331" height="53" rx="5" stroke="#6401C7" stroke-width="2"/>
<rect x="49" y="177" width="112" height="7" fill="white"/>
<path d="M56.6424 173.088H57.9224L63.6504 181.744H63.6824C63.661 181.435 63.645 181.104 63.6344 180.752C63.613 180.453 63.597 180.112 63.5864 179.728C63.5864 179.333 63.5864 178.933 63.5864 178.528V173.088H64.8664V184H63.5864L57.8584 175.312H57.8264C57.837 175.632 57.853 175.968 57.8744 176.32C57.885 176.629 57.8957 176.976 57.9064 177.36C57.917 177.744 57.9224 178.139 57.9224 178.544V184H56.6424V173.088ZM73.2603 183.808C73.0149 183.883 72.7589 183.947 72.4923 184C72.2363 184.053 71.9483 184.101 71.6283 184.144C71.3189 184.187 70.9936 184.208 70.6523 184.208C70.1189 184.208 69.6229 184.133 69.1643 183.984C68.7056 183.835 68.3056 183.595 67.9643 183.264C67.6229 182.933 67.3509 182.507 67.1483 181.984C66.9563 181.451 66.8603 180.8 66.8603 180.032C66.8603 179.339 66.9563 178.731 67.1483 178.208C67.3403 177.675 67.6016 177.232 67.9323 176.88C68.2736 176.517 68.6683 176.245 69.1163 176.064C69.5749 175.883 70.0709 175.792 70.6043 175.792C71.1269 175.792 71.5803 175.893 71.9643 176.096C72.3483 176.299 72.6629 176.576 72.9083 176.928C73.1643 177.269 73.3509 177.675 73.4683 178.144C73.5963 178.603 73.6603 179.088 73.6603 179.6L73.4203 180.304H68.2523C68.2523 180.635 68.2949 180.965 68.3803 181.296C68.4656 181.627 68.6096 181.925 68.8123 182.192C69.0256 182.459 69.2976 182.677 69.6283 182.848C69.9696 183.008 70.3909 183.088 70.8923 183.088C71.2123 183.088 71.5056 183.072 71.7723 183.04C72.0389 182.997 72.2683 182.955 72.4603 182.912C72.6629 182.859 72.8496 182.8 73.0203 182.736L73.2603 183.808ZM72.3323 179.28C72.3323 179.205 72.3163 179.04 72.2843 178.784C72.2523 178.528 72.1776 178.261 72.0603 177.984C71.9429 177.707 71.7616 177.461 71.5163 177.248C71.2709 177.024 70.9456 176.912 70.5403 176.912C70.0923 176.912 69.7243 177.008 69.4363 177.2C69.1483 177.381 68.9189 177.6 68.7483 177.856C68.5776 178.112 68.4603 178.373 68.3963 178.64C68.3323 178.907 68.3003 179.12 68.3003 179.28H72.3323ZM74.538 175.952H75.882L76.826 179.584C76.9113 179.893 76.986 180.224 77.05 180.576C77.1247 180.917 77.194 181.237 77.258 181.536C77.322 181.888 77.3913 182.235 77.466 182.576H77.482C77.5567 182.235 77.642 181.888 77.738 181.536C77.8233 181.237 77.914 180.917 78.01 180.576C78.106 180.224 78.202 179.893 78.298 179.584L79.434 175.952H81.146L82.058 179.584C82.1327 179.893 82.2073 180.224 82.282 180.576C82.3673 180.917 82.4367 181.237 82.49 181.536C82.554 181.888 82.618 182.235 82.682 182.576H82.698C82.794 182.224 82.8953 181.872 83.002 181.52C83.0873 181.221 83.1833 180.901 83.29 180.56C83.3967 180.208 83.498 179.883 83.594 179.584L84.714 175.952H86.042L83.402 184H81.978L80.826 179.584C80.7193 179.179 80.6287 178.816 80.554 178.496C80.49 178.165 80.4313 177.888 80.378 177.664C80.3247 177.397 80.2767 177.163 80.234 176.96H80.202C80.1593 177.163 80.106 177.397 80.042 177.664C79.9887 177.888 79.914 178.165 79.818 178.496C79.722 178.816 79.6153 179.179 79.498 179.584L78.138 184H76.714L74.538 175.952ZM91.3143 173.088H93.8263C95.2129 173.088 96.2369 173.333 96.8983 173.824C97.5703 174.315 97.9062 175.141 97.9062 176.304C97.9062 176.944 97.7836 177.477 97.5383 177.904C97.2929 178.331 96.9836 178.677 96.6103 178.944C96.2476 179.2 95.8529 179.387 95.4263 179.504C94.9996 179.611 94.6049 179.664 94.2423 179.664H92.6583V184H91.3143V173.088ZM92.6583 178.464H94.1302C94.4929 178.464 94.8183 178.432 95.1063 178.368C95.4049 178.293 95.6609 178.176 95.8743 178.016C96.0876 177.845 96.2529 177.621 96.3703 177.344C96.4876 177.056 96.5463 176.699 96.5463 176.272C96.5463 175.845 96.4823 175.504 96.3543 175.248C96.2369 174.981 96.0556 174.779 95.8103 174.64C95.5756 174.501 95.2769 174.411 94.9143 174.368C94.5516 174.315 94.1303 174.288 93.6503 174.288H92.6583V178.464ZM104.07 180.304C103.856 180.315 103.654 180.325 103.462 180.336C103.27 180.347 103.078 180.363 102.886 180.384C102.704 180.395 102.539 180.411 102.39 180.432C101.622 180.528 101.078 180.699 100.758 180.944C100.438 181.179 100.278 181.52 100.278 181.968C100.278 182.341 100.39 182.624 100.614 182.816C100.848 182.997 101.152 183.088 101.526 183.088C102.038 183.088 102.491 183.003 102.886 182.832C103.291 182.651 103.686 182.416 104.07 182.128V180.304ZM104.054 183.248C103.552 183.536 103.083 183.771 102.646 183.952C102.219 184.123 101.755 184.208 101.254 184.208C100.539 184.208 99.9682 184.037 99.5415 183.696C99.1255 183.344 98.9175 182.768 98.9175 181.968C98.9175 181.552 99.0242 181.189 99.2375 180.88C99.4508 180.571 99.7282 180.315 100.07 180.112C100.422 179.899 100.816 179.733 101.254 179.616C101.691 179.499 102.139 179.424 102.598 179.392C102.79 179.371 103.04 179.355 103.35 179.344C103.659 179.323 103.899 179.307 104.07 179.296C104.07 178.923 104.059 178.592 104.038 178.304C104.016 178.005 103.952 177.755 103.846 177.552C103.739 177.339 103.579 177.179 103.366 177.072C103.163 176.965 102.87 176.912 102.486 176.912C102.176 176.912 101.878 176.933 101.59 176.976C101.302 177.008 101.046 177.045 100.822 177.088C100.555 177.141 100.31 177.2 100.086 177.264L99.8295 176.16C100.096 176.096 100.384 176.037 100.694 175.984C100.96 175.931 101.27 175.888 101.622 175.856C101.974 175.813 102.352 175.792 102.758 175.792C103.302 175.792 103.739 175.872 104.07 176.032C104.411 176.192 104.672 176.411 104.854 176.688C105.046 176.955 105.174 177.264 105.238 177.616C105.312 177.957 105.35 178.32 105.35 178.704V182.544C105.35 182.693 105.35 182.853 105.35 183.024C105.36 183.184 105.371 183.344 105.382 183.504C105.403 183.664 105.424 183.829 105.446 184L104.214 184.128L104.054 183.248ZM111.957 177.264C111.509 177.125 111.109 177.035 110.757 176.992C110.416 176.939 110.101 176.912 109.813 176.912C109.44 176.912 109.125 177.003 108.869 177.184C108.624 177.365 108.501 177.6 108.501 177.888C108.512 178.144 108.624 178.363 108.837 178.544C109.05 178.725 109.296 178.891 109.573 179.04C109.861 179.179 110.176 179.333 110.517 179.504C110.869 179.675 111.194 179.867 111.493 180.08C111.802 180.293 112.053 180.549 112.245 180.848C112.437 181.147 112.538 181.504 112.549 181.92C112.538 182.368 112.437 182.741 112.245 183.04C112.064 183.328 111.824 183.563 111.525 183.744C111.237 183.915 110.922 184.032 110.581 184.096C110.24 184.171 109.92 184.208 109.621 184.208C109.237 184.208 108.837 184.187 108.421 184.144C108.016 184.101 107.578 184.011 107.109 183.872L107.349 182.72C107.829 182.848 108.266 182.944 108.661 183.008C109.056 183.061 109.381 183.088 109.637 183.088C109.829 183.088 110.016 183.067 110.197 183.024C110.389 182.981 110.56 182.923 110.709 182.848C110.858 182.763 110.976 182.656 111.061 182.528C111.157 182.4 111.205 182.256 111.205 182.096C111.194 181.797 111.093 181.547 110.901 181.344C110.709 181.131 110.458 180.944 110.149 180.784C109.85 180.613 109.525 180.448 109.173 180.288C108.832 180.117 108.506 179.925 108.197 179.712C107.898 179.488 107.648 179.227 107.445 178.928C107.242 178.619 107.141 178.24 107.141 177.792C107.141 177.472 107.221 177.189 107.381 176.944C107.552 176.688 107.765 176.48 108.021 176.32C108.288 176.149 108.576 176.021 108.885 175.936C109.205 175.84 109.514 175.792 109.813 175.792C110.122 175.792 110.469 175.819 110.853 175.872C111.237 175.915 111.68 176 112.181 176.128L111.957 177.264ZM118.629 177.264C118.181 177.125 117.781 177.035 117.429 176.992C117.088 176.939 116.773 176.912 116.485 176.912C116.112 176.912 115.797 177.003 115.541 177.184C115.296 177.365 115.173 177.6 115.173 177.888C115.184 178.144 115.296 178.363 115.509 178.544C115.722 178.725 115.968 178.891 116.245 179.04C116.533 179.179 116.848 179.333 117.189 179.504C117.541 179.675 117.866 179.867 118.165 180.08C118.474 180.293 118.725 180.549 118.917 180.848C119.109 181.147 119.21 181.504 119.221 181.92C119.21 182.368 119.109 182.741 118.917 183.04C118.736 183.328 118.496 183.563 118.197 183.744C117.909 183.915 117.594 184.032 117.253 184.096C116.912 184.171 116.592 184.208 116.293 184.208C115.909 184.208 115.509 184.187 115.093 184.144C114.688 184.101 114.25 184.011 113.781 183.872L114.021 182.72C114.501 182.848 114.938 182.944 115.333 183.008C115.728 183.061 116.053 183.088 116.309 183.088C116.501 183.088 116.688 183.067 116.869 183.024C117.061 182.981 117.232 182.923 117.381 182.848C117.53 182.763 117.648 182.656 117.733 182.528C117.829 182.4 117.877 182.256 117.877 182.096C117.866 181.797 117.765 181.547 117.573 181.344C117.381 181.131 117.13 180.944 116.821 180.784C116.522 180.613 116.197 180.448 115.845 180.288C115.504 180.117 115.178 179.925 114.869 179.712C114.57 179.488 114.32 179.227 114.117 178.928C113.914 178.619 113.813 178.24 113.813 177.792C113.813 177.472 113.893 177.189 114.053 176.944C114.224 176.688 114.437 176.48 114.693 176.32C114.96 176.149 115.248 176.021 115.557 175.936C115.877 175.84 116.186 175.792 116.485 175.792C116.794 175.792 117.141 175.819 117.525 175.872C117.909 175.915 118.352 176 118.853 176.128L118.629 177.264ZM120.085 175.952H121.429L122.373 179.584C122.458 179.893 122.533 180.224 122.597 180.576C122.672 180.917 122.741 181.237 122.805 181.536C122.869 181.888 122.938 182.235 123.013 182.576H123.029C123.104 182.235 123.189 181.888 123.285 181.536C123.37 181.237 123.461 180.917 123.557 180.576C123.653 180.224 123.749 179.893 123.845 179.584L124.981 175.952H126.693L127.605 179.584C127.68 179.893 127.754 180.224 127.829 180.576C127.914 180.917 127.984 181.237 128.037 181.536C128.101 181.888 128.165 182.235 128.229 182.576H128.245C128.341 182.224 128.442 181.872 128.549 181.52C128.634 181.221 128.73 180.901 128.837 180.56C128.944 180.208 129.045 179.883 129.141 179.584L130.261 175.952H131.589L128.949 184H127.525L126.373 179.584C126.266 179.179 126.176 178.816 126.101 178.496C126.037 178.165 125.978 177.888 125.925 177.664C125.872 177.397 125.824 177.163 125.781 176.96H125.749C125.706 177.163 125.653 177.397 125.589 177.664C125.536 177.888 125.461 178.165 125.365 178.496C125.269 178.816 125.162 179.179 125.045 179.584L123.685 184H122.261L120.085 175.952ZM133.861 180.016C133.861 181.051 134.09 181.824 134.549 182.336C135.018 182.837 135.648 183.088 136.437 183.088C137.216 183.088 137.824 182.837 138.261 182.336C138.698 181.835 138.917 181.083 138.917 180.08C138.917 179.013 138.682 178.219 138.213 177.696C137.754 177.173 137.125 176.912 136.325 176.912C135.525 176.912 134.912 177.173 134.485 177.696C134.069 178.208 133.861 178.981 133.861 180.016ZM132.501 180C132.501 179.189 132.629 178.517 132.885 177.984C133.141 177.44 133.466 177.008 133.861 176.688C134.256 176.357 134.677 176.128 135.125 176C135.584 175.861 136.016 175.792 136.421 175.792C136.805 175.792 137.221 175.856 137.669 175.984C138.128 176.101 138.549 176.32 138.933 176.64C139.317 176.949 139.637 177.371 139.893 177.904C140.149 178.427 140.277 179.093 140.277 179.904C140.277 180.747 140.144 181.445 139.877 182C139.621 182.555 139.296 182.997 138.901 183.328C138.506 183.648 138.08 183.872 137.621 184C137.162 184.139 136.736 184.208 136.341 184.208C135.936 184.208 135.509 184.144 135.061 184.016C134.613 183.888 134.197 183.669 133.813 183.36C133.44 183.04 133.125 182.608 132.869 182.064C132.624 181.52 132.501 180.832 132.501 180ZM142.152 177.248C142.152 177.003 142.126 176.619 142.072 176.096L143.256 175.936L143.384 177.104H143.4C143.592 176.859 143.779 176.645 143.96 176.464C144.142 176.283 144.328 176.128 144.52 176C144.723 175.861 144.915 175.792 145.096 175.792C145.342 175.781 145.683 175.808 146.12 175.872L145.832 177.104C145.48 177.04 145.235 177.013 145.096 177.024C144.915 177.024 144.723 177.109 144.52 177.28C144.318 177.451 144.142 177.632 143.992 177.824C143.8 178.059 143.614 178.325 143.432 178.624V184H142.152V177.248ZM152.317 177.152C151.933 177.045 151.634 176.981 151.421 176.96C151.207 176.928 150.989 176.912 150.765 176.912C150.317 176.912 149.933 176.992 149.613 177.152C149.293 177.312 149.026 177.536 148.813 177.824C148.61 178.101 148.461 178.427 148.365 178.8C148.269 179.163 148.221 179.552 148.221 179.968C148.221 180.341 148.258 180.715 148.333 181.088C148.418 181.461 148.546 181.797 148.717 182.096C148.887 182.395 149.095 182.635 149.341 182.816C149.586 182.997 149.879 183.088 150.221 183.088C150.455 183.088 150.695 183.045 150.941 182.96C151.197 182.875 151.431 182.779 151.645 182.672C151.858 182.555 152.082 182.411 152.317 182.24V177.152ZM152.333 183.36C152.087 183.531 151.847 183.675 151.613 183.792C151.389 183.899 151.138 183.995 150.861 184.08C150.594 184.165 150.333 184.208 150.077 184.208C149.074 184.208 148.285 183.856 147.709 183.152C147.143 182.437 146.861 181.397 146.861 180.032C146.861 179.221 146.989 178.544 147.245 178C147.511 177.456 147.842 177.024 148.237 176.704C148.631 176.373 149.053 176.139 149.501 176C149.959 175.861 150.381 175.792 150.765 175.792C150.957 175.792 151.159 175.808 151.373 175.84C151.586 175.861 151.901 175.925 152.317 176.032V172.016L153.597 171.872V182.544C153.597 182.693 153.597 182.853 153.597 183.024C153.607 183.184 153.618 183.344 153.629 183.504C153.65 183.664 153.671 183.829 153.693 184L152.461 184.128L152.333 183.36Z" fill="#6401C7"/>
<rect x="40" y="265" width="331" height="53" rx="5" stroke="#6401C7" stroke-width="2"/>
<rect x="49" y="262" width="163" height="7" fill="white"/>
<path d="M54.9471 259.088H57.6351C58.2217 259.088 58.7551 259.141 59.2351 259.248C59.7257 259.344 60.1417 259.515 60.4831 259.76C60.8244 259.995 61.0857 260.309 61.2671 260.704C61.4484 261.099 61.5391 261.595 61.5391 262.192C61.5284 262.853 61.4164 263.392 61.2031 263.808C60.9897 264.213 60.7284 264.544 60.4191 264.8C60.1097 265.045 59.7524 265.227 59.3471 265.344V265.376C59.3897 265.419 59.4537 265.499 59.5391 265.616C59.6351 265.723 59.7151 265.819 59.7791 265.904L62.8671 270H61.2831L58.1151 265.664H56.2911V270H54.9471V259.088ZM60.1791 262.416C60.1791 261.968 60.1204 261.605 60.0031 261.328C59.8964 261.04 59.7311 260.821 59.5071 260.672C59.2937 260.523 59.0271 260.421 58.7071 260.368C58.3871 260.315 58.0244 260.288 57.6191 260.288H56.2911V264.464H57.8751C58.2911 264.464 58.6431 264.411 58.9311 264.304C59.2191 264.197 59.4537 264.053 59.6351 263.872C59.8164 263.68 59.9497 263.461 60.0351 263.216C60.1204 262.971 60.1684 262.704 60.1791 262.416ZM69.7681 269.808C69.5227 269.883 69.2667 269.947 69.0001 270C68.7441 270.053 68.4561 270.101 68.1361 270.144C67.8267 270.187 67.5014 270.208 67.1601 270.208C66.6267 270.208 66.1307 270.133 65.6721 269.984C65.2134 269.835 64.8134 269.595 64.4721 269.264C64.1307 268.933 63.8587 268.507 63.6561 267.984C63.4641 267.451 63.3681 266.8 63.3681 266.032C63.3681 265.339 63.4641 264.731 63.6561 264.208C63.8481 263.675 64.1094 263.232 64.4401 262.88C64.7814 262.517 65.1761 262.245 65.6241 262.064C66.0827 261.883 66.5787 261.792 67.1121 261.792C67.6347 261.792 68.0881 261.893 68.4721 262.096C68.8561 262.299 69.1707 262.576 69.4161 262.928C69.6721 263.269 69.8587 263.675 69.9761 264.144C70.1041 264.603 70.1681 265.088 70.1681 265.6L69.9281 266.304H64.7601C64.7601 266.635 64.8027 266.965 64.8881 267.296C64.9734 267.627 65.1174 267.925 65.3201 268.192C65.5334 268.459 65.8054 268.677 66.1361 268.848C66.4774 269.008 66.8987 269.088 67.4001 269.088C67.7201 269.088 68.0134 269.072 68.2801 269.04C68.5467 268.997 68.7761 268.955 68.9681 268.912C69.1707 268.859 69.3574 268.8 69.5281 268.736L69.7681 269.808ZM68.8401 265.28C68.8401 265.205 68.8241 265.04 68.7921 264.784C68.7601 264.528 68.6854 264.261 68.5681 263.984C68.4507 263.707 68.2694 263.461 68.0241 263.248C67.7787 263.024 67.4534 262.912 67.0481 262.912C66.6001 262.912 66.2321 263.008 65.9441 263.2C65.6561 263.381 65.4267 263.6 65.2561 263.856C65.0854 264.112 64.9681 264.373 64.9041 264.64C64.8401 264.907 64.8081 265.12 64.8081 265.28H68.8401ZM73.7818 259.552V261.952H76.1018V262.992H73.7818V267.264C73.7818 267.616 73.7871 267.909 73.7978 268.144C73.8191 268.379 73.8565 268.565 73.9098 268.704C73.9631 268.843 74.0378 268.944 74.1338 269.008C74.2298 269.061 74.3525 269.088 74.5018 269.088C74.9071 269.077 75.3765 268.928 75.9098 268.64L76.2938 269.616C75.9418 269.851 75.6111 270.005 75.3018 270.08C75.0031 270.165 74.7045 270.208 74.4058 270.208C73.7018 270.208 73.2058 270.011 72.9178 269.616C72.6405 269.211 72.5018 268.544 72.5018 267.616V262.992H71.0298V261.952H72.5018V259.712L73.7818 259.552ZM76.6979 261.952H78.0579L79.5619 265.584C79.7113 265.936 79.8446 266.288 79.9619 266.64C80.0899 266.992 80.2019 267.307 80.2979 267.584C80.4153 267.915 80.5166 268.235 80.6019 268.544H80.6179C80.7139 268.235 80.8206 267.915 80.9379 267.584C81.0339 267.307 81.1459 266.992 81.2739 266.64C81.4019 266.288 81.5353 265.936 81.6739 265.584L83.0659 261.952H84.4099L80.6019 271.552C80.4526 271.947 80.2553 272.288 80.0099 272.576C79.7753 272.864 79.5459 273.104 79.3219 273.296C79.0553 273.52 78.7779 273.712 78.4899 273.872L77.8659 272.768C78.0899 272.661 78.2979 272.528 78.4899 272.368C78.6606 272.229 78.8313 272.053 79.0019 271.84C79.1726 271.637 79.3113 271.392 79.4179 271.104L79.9139 269.792L76.6979 261.952ZM85.7071 263.808C85.7071 263.424 85.6804 262.853 85.6271 262.096L86.8111 261.936L86.9551 262.8C87.1684 262.619 87.3871 262.459 87.6111 262.32C87.8457 262.171 88.0964 262.048 88.3631 261.952C88.6404 261.845 88.9337 261.792 89.2431 261.792C89.6804 261.792 90.0911 261.867 90.4751 262.016C90.8697 262.165 91.2111 262.405 91.4991 262.736C91.7977 263.067 92.0324 263.499 92.2031 264.032C92.3737 264.555 92.4591 265.2 92.4591 265.968C92.4591 266.747 92.3417 267.408 92.1071 267.952C91.8831 268.485 91.5844 268.923 91.2111 269.264C90.8484 269.595 90.4324 269.835 89.9631 269.984C89.5044 270.133 89.0351 270.208 88.5551 270.208C88.0431 270.197 87.5204 270.133 86.9871 270.016V273.488L85.7071 273.648V263.808ZM88.5551 269.088C89.0031 269.088 89.3871 269.008 89.7071 268.848C90.0271 268.688 90.2884 268.469 90.4911 268.192C90.7044 267.904 90.8591 267.579 90.9551 267.216C91.0511 266.843 91.0991 266.448 91.0991 266.032C91.0991 265.659 91.0617 265.285 90.9871 264.912C90.9231 264.539 90.8111 264.208 90.6511 263.92C90.5017 263.621 90.2991 263.381 90.0431 263.2C89.7871 263.008 89.4724 262.912 89.0991 262.912C88.8217 262.912 88.5604 262.965 88.3151 263.072C88.0697 263.168 87.8351 263.291 87.6111 263.44C87.3977 263.579 87.1897 263.739 86.9871 263.92V268.832C87.1044 268.875 87.2324 268.917 87.3711 268.96C87.5204 268.992 87.6911 269.024 87.8831 269.056C88.0857 269.077 88.3097 269.088 88.5551 269.088ZM100.284 269.808C100.038 269.883 99.7824 269.947 99.5157 270C99.2597 270.053 98.9717 270.101 98.6517 270.144C98.3424 270.187 98.017 270.208 97.6757 270.208C97.1424 270.208 96.6464 270.133 96.1877 269.984C95.729 269.835 95.329 269.595 94.9877 269.264C94.6464 268.933 94.3744 268.507 94.1717 267.984C93.9797 267.451 93.8837 266.8 93.8837 266.032C93.8837 265.339 93.9797 264.731 94.1717 264.208C94.3637 263.675 94.625 263.232 94.9557 262.88C95.297 262.517 95.6917 262.245 96.1397 262.064C96.5984 261.883 97.0944 261.792 97.6277 261.792C98.1504 261.792 98.6037 261.893 98.9877 262.096C99.3717 262.299 99.6864 262.576 99.9317 262.928C100.188 263.269 100.374 263.675 100.492 264.144C100.62 264.603 100.684 265.088 100.684 265.6L100.444 266.304H95.2757C95.2757 266.635 95.3184 266.965 95.4037 267.296C95.489 267.627 95.633 267.925 95.8357 268.192C96.049 268.459 96.321 268.677 96.6517 268.848C96.993 269.008 97.4144 269.088 97.9157 269.088C98.2357 269.088 98.529 269.072 98.7957 269.04C99.0624 268.997 99.2917 268.955 99.4837 268.912C99.6864 268.859 99.873 268.8 100.044 268.736L100.284 269.808ZM99.3557 265.28C99.3557 265.205 99.3397 265.04 99.3077 264.784C99.2757 264.528 99.201 264.261 99.0837 263.984C98.9664 263.707 98.785 263.461 98.5397 263.248C98.2944 263.024 97.969 262.912 97.5637 262.912C97.1157 262.912 96.7477 263.008 96.4597 263.2C96.1717 263.381 95.9424 263.6 95.7717 263.856C95.601 264.112 95.4837 264.373 95.4197 264.64C95.3557 264.907 95.3237 265.12 95.3237 265.28H99.3557ZM106.338 259.088H107.618L113.346 267.744H113.378C113.356 267.435 113.34 267.104 113.33 266.752C113.308 266.453 113.292 266.112 113.282 265.728C113.282 265.333 113.282 264.933 113.282 264.528V259.088H114.562V270H113.282L107.554 261.312H107.522C107.532 261.632 107.548 261.968 107.57 262.32C107.58 262.629 107.591 262.976 107.602 263.36C107.612 263.744 107.618 264.139 107.618 264.544V270H106.338V259.088ZM122.956 269.808C122.71 269.883 122.454 269.947 122.188 270C121.932 270.053 121.644 270.101 121.324 270.144C121.014 270.187 120.689 270.208 120.348 270.208C119.814 270.208 119.318 270.133 118.86 269.984C118.401 269.835 118.001 269.595 117.66 269.264C117.318 268.933 117.046 268.507 116.844 267.984C116.652 267.451 116.556 266.8 116.556 266.032C116.556 265.339 116.652 264.731 116.844 264.208C117.036 263.675 117.297 263.232 117.628 262.88C117.969 262.517 118.364 262.245 118.812 262.064C119.27 261.883 119.766 261.792 120.3 261.792C120.822 261.792 121.276 261.893 121.66 262.096C122.044 262.299 122.358 262.576 122.604 262.928C122.86 263.269 123.046 263.675 123.164 264.144C123.292 264.603 123.356 265.088 123.356 265.6L123.116 266.304H117.948C117.948 266.635 117.99 266.965 118.076 267.296C118.161 267.627 118.305 267.925 118.508 268.192C118.721 268.459 118.993 268.677 119.324 268.848C119.665 269.008 120.086 269.088 120.588 269.088C120.908 269.088 121.201 269.072 121.468 269.04C121.734 268.997 121.964 268.955 122.156 268.912C122.358 268.859 122.545 268.8 122.716 268.736L122.956 269.808ZM122.028 265.28C122.028 265.205 122.012 265.04 121.98 264.784C121.948 264.528 121.873 264.261 121.756 263.984C121.638 263.707 121.457 263.461 121.212 263.248C120.966 263.024 120.641 262.912 120.236 262.912C119.788 262.912 119.42 263.008 119.132 263.2C118.844 263.381 118.614 263.6 118.444 263.856C118.273 264.112 118.156 264.373 118.092 264.64C118.028 264.907 117.996 265.12 117.996 265.28H122.028ZM124.233 261.952H125.577L126.521 265.584C126.607 265.893 126.681 266.224 126.745 266.576C126.82 266.917 126.889 267.237 126.953 267.536C127.017 267.888 127.087 268.235 127.161 268.576H127.177C127.252 268.235 127.337 267.888 127.433 267.536C127.519 267.237 127.609 266.917 127.705 266.576C127.801 266.224 127.897 265.893 127.993 265.584L129.129 261.952H130.841L131.753 265.584C131.828 265.893 131.903 266.224 131.977 266.576C132.063 266.917 132.132 267.237 132.185 267.536C132.249 267.888 132.313 268.235 132.377 268.576H132.393C132.489 268.224 132.591 267.872 132.697 267.52C132.783 267.221 132.879 266.901 132.985 266.56C133.092 266.208 133.193 265.883 133.289 265.584L134.409 261.952H135.737L133.097 270H131.673L130.521 265.584C130.415 265.179 130.324 264.816 130.249 264.496C130.185 264.165 130.127 263.888 130.073 263.664C130.02 263.397 129.972 263.163 129.929 262.96H129.897C129.855 263.163 129.801 263.397 129.737 263.664C129.684 263.888 129.609 264.165 129.513 264.496C129.417 264.816 129.311 265.179 129.193 265.584L127.833 270H126.409L124.233 261.952ZM141.01 259.088H143.522C144.908 259.088 145.932 259.333 146.594 259.824C147.266 260.315 147.602 261.141 147.602 262.304C147.602 262.944 147.479 263.477 147.234 263.904C146.988 264.331 146.679 264.677 146.306 264.944C145.943 265.2 145.548 265.387 145.122 265.504C144.695 265.611 144.3 265.664 143.938 265.664H142.354V270H141.01V259.088ZM142.354 264.464H143.826C144.188 264.464 144.514 264.432 144.802 264.368C145.1 264.293 145.356 264.176 145.57 264.016C145.783 263.845 145.948 263.621 146.066 263.344C146.183 263.056 146.242 262.699 146.242 262.272C146.242 261.845 146.178 261.504 146.05 261.248C145.932 260.981 145.751 260.779 145.506 260.64C145.271 260.501 144.972 260.411 144.61 260.368C144.247 260.315 143.826 260.288 143.346 260.288H142.354V264.464ZM153.765 266.304C153.551 266.315 153.349 266.325 153.157 266.336C152.965 266.347 152.773 266.363 152.581 266.384C152.399 266.395 152.234 266.411 152.085 266.432C151.317 266.528 150.773 266.699 150.453 266.944C150.133 267.179 149.973 267.52 149.973 267.968C149.973 268.341 150.085 268.624 150.309 268.816C150.543 268.997 150.847 269.088 151.221 269.088C151.733 269.088 152.186 269.003 152.581 268.832C152.986 268.651 153.381 268.416 153.765 268.128V266.304ZM153.749 269.248C153.247 269.536 152.778 269.771 152.341 269.952C151.914 270.123 151.45 270.208 150.949 270.208C150.234 270.208 149.663 270.037 149.237 269.696C148.821 269.344 148.613 268.768 148.613 267.968C148.613 267.552 148.719 267.189 148.933 266.88C149.146 266.571 149.423 266.315 149.765 266.112C150.117 265.899 150.511 265.733 150.949 265.616C151.386 265.499 151.834 265.424 152.293 265.392C152.485 265.371 152.735 265.355 153.045 265.344C153.354 265.323 153.594 265.307 153.765 265.296C153.765 264.923 153.754 264.592 153.733 264.304C153.711 264.005 153.647 263.755 153.541 263.552C153.434 263.339 153.274 263.179 153.061 263.072C152.858 262.965 152.565 262.912 152.181 262.912C151.871 262.912 151.573 262.933 151.285 262.976C150.997 263.008 150.741 263.045 150.517 263.088C150.25 263.141 150.005 263.2 149.781 263.264L149.525 262.16C149.791 262.096 150.079 262.037 150.389 261.984C150.655 261.931 150.965 261.888 151.317 261.856C151.669 261.813 152.047 261.792 152.453 261.792C152.997 261.792 153.434 261.872 153.765 262.032C154.106 262.192 154.367 262.411 154.549 262.688C154.741 262.955 154.869 263.264 154.933 263.616C155.007 263.957 155.045 264.32 155.045 264.704V268.544C155.045 268.693 155.045 268.853 155.045 269.024C155.055 269.184 155.066 269.344 155.077 269.504C155.098 269.664 155.119 269.829 155.141 270L153.909 270.128L153.749 269.248ZM161.652 263.264C161.204 263.125 160.804 263.035 160.452 262.992C160.111 262.939 159.796 262.912 159.508 262.912C159.135 262.912 158.82 263.003 158.564 263.184C158.319 263.365 158.196 263.6 158.196 263.888C158.207 264.144 158.319 264.363 158.532 264.544C158.746 264.725 158.991 264.891 159.268 265.04C159.556 265.179 159.871 265.333 160.212 265.504C160.564 265.675 160.89 265.867 161.188 266.08C161.498 266.293 161.748 266.549 161.94 266.848C162.132 267.147 162.234 267.504 162.244 267.92C162.234 268.368 162.132 268.741 161.94 269.04C161.759 269.328 161.519 269.563 161.22 269.744C160.932 269.915 160.618 270.032 160.276 270.096C159.935 270.171 159.615 270.208 159.316 270.208C158.932 270.208 158.532 270.187 158.116 270.144C157.711 270.101 157.274 270.011 156.804 269.872L157.044 268.72C157.524 268.848 157.962 268.944 158.356 269.008C158.751 269.061 159.076 269.088 159.332 269.088C159.524 269.088 159.711 269.067 159.892 269.024C160.084 268.981 160.255 268.923 160.404 268.848C160.554 268.763 160.671 268.656 160.756 268.528C160.852 268.4 160.9 268.256 160.9 268.096C160.89 267.797 160.788 267.547 160.596 267.344C160.404 267.131 160.154 266.944 159.844 266.784C159.546 266.613 159.22 266.448 158.868 266.288C158.527 266.117 158.202 265.925 157.892 265.712C157.594 265.488 157.343 265.227 157.14 264.928C156.938 264.619 156.836 264.24 156.836 263.792C156.836 263.472 156.916 263.189 157.076 262.944C157.247 262.688 157.46 262.48 157.716 262.32C157.983 262.149 158.271 262.021 158.58 261.936C158.9 261.84 159.21 261.792 159.508 261.792C159.818 261.792 160.164 261.819 160.548 261.872C160.932 261.915 161.375 262 161.876 262.128L161.652 263.264ZM168.324 263.264C167.876 263.125 167.476 263.035 167.124 262.992C166.783 262.939 166.468 262.912 166.18 262.912C165.807 262.912 165.492 263.003 165.236 263.184C164.991 263.365 164.868 263.6 164.868 263.888C164.879 264.144 164.991 264.363 165.204 264.544C165.418 264.725 165.663 264.891 165.94 265.04C166.228 265.179 166.543 265.333 166.884 265.504C167.236 265.675 167.562 265.867 167.86 266.08C168.17 266.293 168.42 266.549 168.612 266.848C168.804 267.147 168.906 267.504 168.916 267.92C168.906 268.368 168.804 268.741 168.612 269.04C168.431 269.328 168.191 269.563 167.892 269.744C167.604 269.915 167.29 270.032 166.948 270.096C166.607 270.171 166.287 270.208 165.988 270.208C165.604 270.208 165.204 270.187 164.788 270.144C164.383 270.101 163.946 270.011 163.476 269.872L163.716 268.72C164.196 268.848 164.634 268.944 165.028 269.008C165.423 269.061 165.748 269.088 166.004 269.088C166.196 269.088 166.383 269.067 166.564 269.024C166.756 268.981 166.927 268.923 167.076 268.848C167.226 268.763 167.343 268.656 167.428 268.528C167.524 268.4 167.572 268.256 167.572 268.096C167.562 267.797 167.46 267.547 167.268 267.344C167.076 267.131 166.826 266.944 166.516 266.784C166.218 266.613 165.892 266.448 165.54 266.288C165.199 266.117 164.874 265.925 164.564 265.712C164.266 265.488 164.015 265.227 163.812 264.928C163.61 264.619 163.508 264.24 163.508 263.792C163.508 263.472 163.588 263.189 163.748 262.944C163.919 262.688 164.132 262.48 164.388 262.32C164.655 262.149 164.943 262.021 165.252 261.936C165.572 261.84 165.882 261.792 166.18 261.792C166.49 261.792 166.836 261.819 167.22 261.872C167.604 261.915 168.047 262 168.548 262.128L168.324 263.264ZM169.78 261.952H171.124L172.068 265.584C172.154 265.893 172.228 266.224 172.292 266.576C172.367 266.917 172.436 267.237 172.5 267.536C172.564 267.888 172.634 268.235 172.708 268.576H172.724C172.799 268.235 172.884 267.888 172.98 267.536C173.066 267.237 173.156 266.917 173.252 266.576C173.348 266.224 173.444 265.893 173.54 265.584L174.676 261.952H176.388L177.3 265.584C177.375 265.893 177.45 266.224 177.524 266.576C177.61 266.917 177.679 267.237 177.732 267.536C177.796 267.888 177.86 268.235 177.924 268.576H177.94C178.036 268.224 178.138 267.872 178.244 267.52C178.33 267.221 178.426 266.901 178.532 266.56C178.639 266.208 178.74 265.883 178.836 265.584L179.956 261.952H181.284L178.644 270H177.22L176.068 265.584C175.962 265.179 175.871 264.816 175.796 264.496C175.732 264.165 175.674 263.888 175.62 263.664C175.567 263.397 175.519 263.163 175.476 262.96H175.444C175.402 263.163 175.348 263.397 175.284 263.664C175.231 263.888 175.156 264.165 175.06 264.496C174.964 264.816 174.858 265.179 174.74 265.584L173.38 270H171.956L169.78 261.952ZM183.556 266.016C183.556 267.051 183.786 267.824 184.244 268.336C184.714 268.837 185.343 269.088 186.132 269.088C186.911 269.088 187.519 268.837 187.956 268.336C188.394 267.835 188.612 267.083 188.612 266.08C188.612 265.013 188.378 264.219 187.908 263.696C187.45 263.173 186.82 262.912 186.02 262.912C185.22 262.912 184.607 263.173 184.18 263.696C183.764 264.208 183.556 264.981 183.556 266.016ZM182.196 266C182.196 265.189 182.324 264.517 182.58 263.984C182.836 263.44 183.162 263.008 183.556 262.688C183.951 262.357 184.372 262.128 184.82 262C185.279 261.861 185.711 261.792 186.116 261.792C186.5 261.792 186.916 261.856 187.364 261.984C187.823 262.101 188.244 262.32 188.628 262.64C189.012 262.949 189.332 263.371 189.588 263.904C189.844 264.427 189.972 265.093 189.972 265.904C189.972 266.747 189.839 267.445 189.572 268C189.316 268.555 188.991 268.997 188.596 269.328C188.202 269.648 187.775 269.872 187.316 270C186.858 270.139 186.431 270.208 186.036 270.208C185.631 270.208 185.204 270.144 184.756 270.016C184.308 269.888 183.892 269.669 183.508 269.36C183.135 269.04 182.82 268.608 182.564 268.064C182.319 267.52 182.196 266.832 182.196 266ZM191.848 263.248C191.848 263.003 191.821 262.619 191.768 262.096L192.952 261.936L193.08 263.104H193.096C193.288 262.859 193.474 262.645 193.656 262.464C193.837 262.283 194.024 262.128 194.216 262C194.418 261.861 194.61 261.792 194.792 261.792C195.037 261.781 195.378 261.808 195.816 261.872L195.528 263.104C195.176 263.04 194.93 263.013 194.792 263.024C194.61 263.024 194.418 263.109 194.216 263.28C194.013 263.451 193.837 263.632 193.688 263.824C193.496 264.059 193.309 264.325 193.128 264.624V270H191.848V263.248ZM202.012 263.152C201.628 263.045 201.329 262.981 201.116 262.96C200.903 262.928 200.684 262.912 200.46 262.912C200.012 262.912 199.628 262.992 199.308 263.152C198.988 263.312 198.721 263.536 198.508 263.824C198.305 264.101 198.156 264.427 198.06 264.8C197.964 265.163 197.916 265.552 197.916 265.968C197.916 266.341 197.953 266.715 198.028 267.088C198.113 267.461 198.241 267.797 198.412 268.096C198.583 268.395 198.791 268.635 199.036 268.816C199.281 268.997 199.575 269.088 199.916 269.088C200.151 269.088 200.391 269.045 200.636 268.96C200.892 268.875 201.127 268.779 201.34 268.672C201.553 268.555 201.777 268.411 202.012 268.24V263.152ZM202.028 269.36C201.783 269.531 201.543 269.675 201.308 269.792C201.084 269.899 200.833 269.995 200.556 270.08C200.289 270.165 200.028 270.208 199.772 270.208C198.769 270.208 197.98 269.856 197.404 269.152C196.839 268.437 196.556 267.397 196.556 266.032C196.556 265.221 196.684 264.544 196.94 264C197.207 263.456 197.537 263.024 197.932 262.704C198.327 262.373 198.748 262.139 199.196 262C199.655 261.861 200.076 261.792 200.46 261.792C200.652 261.792 200.855 261.808 201.068 261.84C201.281 261.861 201.596 261.925 202.012 262.032V258.016L203.292 257.872V268.544C203.292 268.693 203.292 268.853 203.292 269.024C203.303 269.184 203.313 269.344 203.324 269.504C203.345 269.664 203.367 269.829 203.388 270L202.156 270.128L202.028 269.36Z" fill="#6401C7"/>
<g filter="url(#filter0_d)">
<rect x="142" y="643" width="134" height="45" rx="6" fill="#6401C7"/>
</g>
<path d="M194.222 663.013V672H192.132V658.7H194.222L199.371 667.63V658.7H201.48V672H199.371L194.222 663.013ZM205.782 669.169C205.782 669.524 205.877 669.802 206.067 670.005C206.269 670.195 206.561 670.29 206.941 670.29C207.523 670.29 208.302 670.037 209.278 669.53L210.038 671.335C209.582 671.626 209.062 671.848 208.48 672C207.897 672.152 207.314 672.228 206.732 672.228C205.794 672.228 205.047 672 204.49 671.544C203.945 671.075 203.673 670.379 203.673 669.454V665.559C203.673 664.533 203.989 663.735 204.623 663.165C205.269 662.595 206.117 662.31 207.169 662.31C208.22 662.31 209.037 662.595 209.62 663.165C210.215 663.722 210.513 664.501 210.513 665.502V668.39L205.782 668.637V669.169ZM208.404 665.54C208.404 665.16 208.283 664.869 208.043 664.666C207.802 664.463 207.504 664.362 207.15 664.362C206.668 664.362 206.32 664.489 206.105 664.742C205.889 664.995 205.782 665.274 205.782 665.578V666.718L208.404 666.547V665.54ZM216.086 669.34L214.433 672H211.83L214.794 667.269L211.83 662.481H214.471L216.105 665.198L217.815 662.481H220.399L217.378 667.25L220.247 672H217.758L216.086 669.34ZM224.86 672.247C222.934 672.209 221.972 671.291 221.972 669.492V658.7H224.1V662.481H225.905L225.449 664.438H224.1V669.492C224.1 669.923 224.22 670.214 224.461 670.366C224.701 670.505 225.043 670.575 225.487 670.575L224.86 672.247Z" fill="white"/>
<path d="M136.309 116.038C136.025 115.947 135.725 115.868 135.408 115.8C135.09 115.721 134.739 115.658 134.354 115.613C133.98 115.556 133.583 115.528 133.164 115.528C132.484 115.528 131.906 115.675 131.43 115.97C130.954 116.265 130.563 116.644 130.257 117.109C129.962 117.562 129.747 118.072 129.611 118.639C129.475 119.206 129.407 119.767 129.407 120.322C129.407 121.025 129.503 121.665 129.696 122.243C129.9 122.81 130.172 123.297 130.512 123.705C130.863 124.102 131.265 124.408 131.719 124.623C132.183 124.838 132.671 124.946 133.181 124.946C133.657 124.946 134.093 124.923 134.49 124.878C134.886 124.821 135.226 124.765 135.51 124.708C135.838 124.64 136.133 124.561 136.394 124.47L136.683 125.677C136.377 125.779 136.037 125.87 135.663 125.949C135.345 126.017 134.977 126.079 134.558 126.136C134.138 126.193 133.679 126.221 133.181 126.221C132.285 126.221 131.498 126.074 130.818 125.779C130.149 125.484 129.588 125.076 129.135 124.555C128.693 124.022 128.358 123.399 128.132 122.685C127.905 121.96 127.792 121.166 127.792 120.305C127.792 119.319 127.928 118.452 128.2 117.704C128.472 116.945 128.846 116.31 129.322 115.8C129.798 115.29 130.364 114.905 131.022 114.644C131.679 114.383 132.399 114.253 133.181 114.253C133.657 114.253 134.099 114.281 134.507 114.338C134.926 114.383 135.306 114.446 135.646 114.525C135.997 114.604 136.32 114.689 136.615 114.78L136.309 116.038ZM138.359 118.826C138.359 118.565 138.331 118.157 138.274 117.602L139.532 117.432L139.668 118.673H139.685C139.889 118.412 140.087 118.186 140.28 117.993C140.473 117.8 140.671 117.636 140.875 117.5C141.09 117.353 141.294 117.279 141.487 117.279C141.748 117.268 142.11 117.296 142.575 117.364L142.269 118.673C141.895 118.605 141.634 118.577 141.487 118.588C141.294 118.588 141.09 118.679 140.875 118.86C140.66 119.041 140.473 119.234 140.314 119.438C140.11 119.687 139.912 119.971 139.719 120.288V126H138.359V118.826ZM150.145 125.796C149.884 125.875 149.612 125.943 149.329 126C149.057 126.057 148.751 126.108 148.411 126.153C148.082 126.198 147.736 126.221 147.374 126.221C146.807 126.221 146.28 126.142 145.793 125.983C145.305 125.824 144.88 125.569 144.518 125.218C144.155 124.867 143.866 124.413 143.651 123.858C143.447 123.291 143.345 122.6 143.345 121.784C143.345 121.047 143.447 120.401 143.651 119.846C143.855 119.279 144.132 118.809 144.484 118.435C144.846 118.05 145.266 117.761 145.742 117.568C146.229 117.375 146.756 117.279 147.323 117.279C147.878 117.279 148.36 117.387 148.768 117.602C149.176 117.817 149.51 118.112 149.771 118.486C150.043 118.849 150.241 119.279 150.366 119.778C150.502 120.265 150.57 120.781 150.57 121.325L150.315 122.073H144.824C144.824 122.424 144.869 122.776 144.96 123.127C145.05 123.478 145.203 123.796 145.419 124.079C145.645 124.362 145.934 124.595 146.286 124.776C146.648 124.946 147.096 125.031 147.629 125.031C147.969 125.031 148.28 125.014 148.564 124.98C148.847 124.935 149.091 124.889 149.295 124.844C149.51 124.787 149.708 124.725 149.89 124.657L150.145 125.796ZM149.159 120.985C149.159 120.906 149.142 120.73 149.108 120.458C149.074 120.186 148.994 119.903 148.87 119.608C148.745 119.313 148.552 119.053 148.292 118.826C148.031 118.588 147.685 118.469 147.255 118.469C146.779 118.469 146.388 118.571 146.082 118.775C145.776 118.968 145.532 119.2 145.351 119.472C145.169 119.744 145.045 120.022 144.977 120.305C144.909 120.588 144.875 120.815 144.875 120.985H149.159ZM157.18 122.073C156.954 122.084 156.738 122.096 156.534 122.107C156.33 122.118 156.126 122.135 155.922 122.158C155.73 122.169 155.554 122.186 155.395 122.209C154.579 122.311 154.001 122.492 153.661 122.753C153.321 123.002 153.151 123.365 153.151 123.841C153.151 124.238 153.27 124.538 153.508 124.742C153.758 124.935 154.081 125.031 154.477 125.031C155.021 125.031 155.503 124.94 155.922 124.759C156.353 124.566 156.772 124.317 157.18 124.011V122.073ZM157.163 125.201C156.631 125.507 156.132 125.756 155.667 125.949C155.214 126.13 154.721 126.221 154.188 126.221C153.429 126.221 152.823 126.04 152.369 125.677C151.927 125.303 151.706 124.691 151.706 123.841C151.706 123.399 151.82 123.014 152.046 122.685C152.273 122.356 152.568 122.084 152.93 121.869C153.304 121.642 153.724 121.467 154.188 121.342C154.653 121.217 155.129 121.138 155.616 121.104C155.82 121.081 156.087 121.064 156.415 121.053C156.744 121.03 156.999 121.013 157.18 121.002C157.18 120.605 157.169 120.254 157.146 119.948C157.124 119.631 157.056 119.364 156.942 119.149C156.829 118.922 156.659 118.752 156.432 118.639C156.217 118.526 155.905 118.469 155.497 118.469C155.169 118.469 154.851 118.492 154.545 118.537C154.239 118.571 153.967 118.611 153.729 118.656C153.446 118.713 153.185 118.775 152.947 118.843L152.675 117.67C152.959 117.602 153.265 117.54 153.593 117.483C153.877 117.426 154.205 117.381 154.579 117.347C154.953 117.302 155.356 117.279 155.786 117.279C156.364 117.279 156.829 117.364 157.18 117.534C157.543 117.704 157.821 117.936 158.013 118.231C158.217 118.514 158.353 118.843 158.421 119.217C158.501 119.58 158.54 119.965 158.54 120.373V124.453C158.54 124.612 158.54 124.782 158.54 124.963C158.552 125.133 158.563 125.303 158.574 125.473C158.597 125.643 158.62 125.819 158.642 126L157.333 126.136L157.163 125.201ZM162.926 114.899V117.449H165.391V118.554H162.926V123.093C162.926 123.467 162.932 123.779 162.943 124.028C162.966 124.277 163.005 124.476 163.062 124.623C163.119 124.77 163.198 124.878 163.3 124.946C163.402 125.003 163.532 125.031 163.691 125.031C164.122 125.02 164.62 124.861 165.187 124.555L165.595 125.592C165.221 125.841 164.87 126.006 164.541 126.085C164.224 126.176 163.906 126.221 163.589 126.221C162.841 126.221 162.314 126.011 162.008 125.592C161.713 125.161 161.566 124.453 161.566 123.467V118.554H160.002V117.449H161.566V115.069L162.926 114.899ZM173.387 125.796C173.126 125.875 172.854 125.943 172.571 126C172.299 126.057 171.993 126.108 171.653 126.153C171.324 126.198 170.979 126.221 170.616 126.221C170.049 126.221 169.522 126.142 169.035 125.983C168.548 125.824 168.123 125.569 167.76 125.218C167.397 124.867 167.108 124.413 166.893 123.858C166.689 123.291 166.587 122.6 166.587 121.784C166.587 121.047 166.689 120.401 166.893 119.846C167.097 119.279 167.375 118.809 167.726 118.435C168.089 118.05 168.508 117.761 168.984 117.568C169.471 117.375 169.998 117.279 170.565 117.279C171.12 117.279 171.602 117.387 172.01 117.602C172.418 117.817 172.752 118.112 173.013 118.486C173.285 118.849 173.483 119.279 173.608 119.778C173.744 120.265 173.812 120.781 173.812 121.325L173.557 122.073H168.066C168.066 122.424 168.111 122.776 168.202 123.127C168.293 123.478 168.446 123.796 168.661 124.079C168.888 124.362 169.177 124.595 169.528 124.776C169.891 124.946 170.338 125.031 170.871 125.031C171.211 125.031 171.523 125.014 171.806 124.98C172.089 124.935 172.333 124.889 172.537 124.844C172.752 124.787 172.951 124.725 173.132 124.657L173.387 125.796ZM172.401 120.985C172.401 120.906 172.384 120.73 172.35 120.458C172.316 120.186 172.237 119.903 172.112 119.608C171.987 119.313 171.795 119.053 171.534 118.826C171.273 118.588 170.928 118.469 170.497 118.469C170.021 118.469 169.63 118.571 169.324 118.775C169.018 118.968 168.774 119.2 168.593 119.472C168.412 119.744 168.287 120.022 168.219 120.305C168.151 120.588 168.117 120.815 168.117 120.985H172.401ZM179.819 114.406H181.179L187.265 123.603H187.299C187.277 123.274 187.26 122.923 187.248 122.549C187.226 122.232 187.209 121.869 187.197 121.461C187.197 121.042 187.197 120.617 187.197 120.186V114.406H188.557V126H187.197L181.111 116.769H181.077C181.089 117.109 181.106 117.466 181.128 117.84C181.14 118.169 181.151 118.537 181.162 118.945C181.174 119.353 181.179 119.772 181.179 120.203V126H179.819V114.406ZM197.476 125.796C197.215 125.875 196.943 125.943 196.66 126C196.388 126.057 196.082 126.108 195.742 126.153C195.413 126.198 195.067 126.221 194.705 126.221C194.138 126.221 193.611 126.142 193.124 125.983C192.636 125.824 192.211 125.569 191.849 125.218C191.486 124.867 191.197 124.413 190.982 123.858C190.778 123.291 190.676 122.6 190.676 121.784C190.676 121.047 190.778 120.401 190.982 119.846C191.186 119.279 191.463 118.809 191.815 118.435C192.177 118.05 192.597 117.761 193.073 117.568C193.56 117.375 194.087 117.279 194.654 117.279C195.209 117.279 195.691 117.387 196.099 117.602C196.507 117.817 196.841 118.112 197.102 118.486C197.374 118.849 197.572 119.279 197.697 119.778C197.833 120.265 197.901 120.781 197.901 121.325L197.646 122.073H192.155C192.155 122.424 192.2 122.776 192.291 123.127C192.381 123.478 192.534 123.796 192.75 124.079C192.976 124.362 193.265 124.595 193.617 124.776C193.979 124.946 194.427 125.031 194.96 125.031C195.3 125.031 195.611 125.014 195.895 124.98C196.178 124.935 196.422 124.889 196.626 124.844C196.841 124.787 197.039 124.725 197.221 124.657L197.476 125.796ZM196.49 120.985C196.49 120.906 196.473 120.73 196.439 120.458C196.405 120.186 196.325 119.903 196.201 119.608C196.076 119.313 195.883 119.053 195.623 118.826C195.362 118.588 195.016 118.469 194.586 118.469C194.11 118.469 193.719 118.571 193.413 118.775C193.107 118.968 192.863 119.2 192.682 119.472C192.5 119.744 192.376 120.022 192.308 120.305C192.24 120.588 192.206 120.815 192.206 120.985H196.49ZM198.833 117.449H200.261L201.264 121.308C201.355 121.637 201.434 121.988 201.502 122.362C201.582 122.725 201.655 123.065 201.723 123.382C201.791 123.756 201.865 124.124 201.944 124.487H201.961C202.041 124.124 202.131 123.756 202.233 123.382C202.324 123.065 202.42 122.725 202.522 122.362C202.624 121.988 202.726 121.637 202.828 121.308L204.035 117.449H205.854L206.823 121.308C206.903 121.637 206.982 121.988 207.061 122.362C207.152 122.725 207.226 123.065 207.282 123.382C207.35 123.756 207.418 124.124 207.486 124.487H207.503C207.605 124.113 207.713 123.739 207.826 123.365C207.917 123.048 208.019 122.708 208.132 122.345C208.246 121.971 208.353 121.625 208.455 121.308L209.645 117.449H211.056L208.251 126H206.738L205.514 121.308C205.401 120.877 205.305 120.492 205.225 120.152C205.157 119.801 205.095 119.506 205.038 119.268C204.982 118.985 204.931 118.735 204.885 118.52H204.851C204.806 118.735 204.749 118.985 204.681 119.268C204.625 119.506 204.545 119.801 204.443 120.152C204.341 120.492 204.228 120.877 204.103 121.308L202.658 126H201.145L198.833 117.449ZM216.658 114.406H219.327C220.8 114.406 221.888 114.667 222.591 115.188C223.305 115.709 223.662 116.588 223.662 117.823C223.662 118.503 223.532 119.07 223.271 119.523C223.01 119.976 222.682 120.345 222.285 120.628C221.9 120.9 221.48 121.098 221.027 121.223C220.574 121.336 220.154 121.393 219.769 121.393H218.086V126H216.658V114.406ZM218.086 120.118H219.65C220.035 120.118 220.381 120.084 220.687 120.016C221.004 119.937 221.276 119.812 221.503 119.642C221.73 119.461 221.905 119.223 222.03 118.928C222.155 118.622 222.217 118.242 222.217 117.789C222.217 117.336 222.149 116.973 222.013 116.701C221.888 116.418 221.696 116.202 221.435 116.055C221.186 115.908 220.868 115.811 220.483 115.766C220.098 115.709 219.65 115.681 219.14 115.681H218.086V120.118ZM230.211 122.073C229.984 122.084 229.769 122.096 229.565 122.107C229.361 122.118 229.157 122.135 228.953 122.158C228.76 122.169 228.584 122.186 228.426 122.209C227.61 122.311 227.032 122.492 226.692 122.753C226.352 123.002 226.182 123.365 226.182 123.841C226.182 124.238 226.301 124.538 226.539 124.742C226.788 124.935 227.111 125.031 227.508 125.031C228.052 125.031 228.533 124.94 228.953 124.759C229.383 124.566 229.803 124.317 230.211 124.011V122.073ZM230.194 125.201C229.661 125.507 229.162 125.756 228.698 125.949C228.244 126.13 227.751 126.221 227.219 126.221C226.459 126.221 225.853 126.04 225.4 125.677C224.958 125.303 224.737 124.691 224.737 123.841C224.737 123.399 224.85 123.014 225.077 122.685C225.303 122.356 225.598 122.084 225.961 121.869C226.335 121.642 226.754 121.467 227.219 121.342C227.683 121.217 228.159 121.138 228.647 121.104C228.851 121.081 229.117 121.064 229.446 121.053C229.774 121.03 230.029 121.013 230.211 121.002C230.211 120.605 230.199 120.254 230.177 119.948C230.154 119.631 230.086 119.364 229.973 119.149C229.859 118.922 229.689 118.752 229.463 118.639C229.247 118.526 228.936 118.469 228.528 118.469C228.199 118.469 227.882 118.492 227.576 118.537C227.27 118.571 226.998 118.611 226.76 118.656C226.476 118.713 226.216 118.775 225.978 118.843L225.706 117.67C225.989 117.602 226.295 117.54 226.624 117.483C226.907 117.426 227.236 117.381 227.61 117.347C227.984 117.302 228.386 117.279 228.817 117.279C229.395 117.279 229.859 117.364 230.211 117.534C230.573 117.704 230.851 117.936 231.044 118.231C231.248 118.514 231.384 118.843 231.452 119.217C231.531 119.58 231.571 119.965 231.571 120.373V124.453C231.571 124.612 231.571 124.782 231.571 124.963C231.582 125.133 231.593 125.303 231.605 125.473C231.627 125.643 231.65 125.819 231.673 126L230.364 126.136L230.194 125.201ZM238.591 118.843C238.115 118.696 237.69 118.599 237.316 118.554C236.953 118.497 236.619 118.469 236.313 118.469C235.916 118.469 235.582 118.565 235.31 118.758C235.049 118.951 234.919 119.2 234.919 119.506C234.93 119.778 235.049 120.01 235.276 120.203C235.503 120.396 235.763 120.571 236.058 120.73C236.364 120.877 236.698 121.042 237.061 121.223C237.435 121.404 237.781 121.608 238.098 121.835C238.427 122.062 238.693 122.334 238.897 122.651C239.101 122.968 239.209 123.348 239.22 123.79C239.209 124.266 239.101 124.663 238.897 124.98C238.704 125.286 238.449 125.535 238.132 125.728C237.826 125.909 237.492 126.034 237.129 126.102C236.766 126.181 236.426 126.221 236.109 126.221C235.701 126.221 235.276 126.198 234.834 126.153C234.403 126.108 233.939 126.011 233.44 125.864L233.695 124.64C234.205 124.776 234.67 124.878 235.089 124.946C235.508 125.003 235.854 125.031 236.126 125.031C236.33 125.031 236.528 125.008 236.721 124.963C236.925 124.918 237.106 124.855 237.265 124.776C237.424 124.685 237.548 124.572 237.639 124.436C237.741 124.3 237.792 124.147 237.792 123.977C237.781 123.66 237.673 123.393 237.469 123.178C237.265 122.951 236.999 122.753 236.67 122.583C236.353 122.402 236.007 122.226 235.633 122.056C235.27 121.875 234.925 121.671 234.596 121.444C234.279 121.206 234.012 120.928 233.797 120.611C233.582 120.282 233.474 119.88 233.474 119.404C233.474 119.064 233.559 118.764 233.729 118.503C233.91 118.231 234.137 118.01 234.409 117.84C234.692 117.659 234.998 117.523 235.327 117.432C235.667 117.33 235.996 117.279 236.313 117.279C236.642 117.279 237.01 117.307 237.418 117.364C237.826 117.409 238.296 117.5 238.829 117.636L238.591 118.843ZM245.68 118.843C245.204 118.696 244.779 118.599 244.405 118.554C244.042 118.497 243.708 118.469 243.402 118.469C243.005 118.469 242.671 118.565 242.399 118.758C242.138 118.951 242.008 119.2 242.008 119.506C242.019 119.778 242.138 120.01 242.365 120.203C242.592 120.396 242.852 120.571 243.147 120.73C243.453 120.877 243.787 121.042 244.15 121.223C244.524 121.404 244.87 121.608 245.187 121.835C245.516 122.062 245.782 122.334 245.986 122.651C246.19 122.968 246.298 123.348 246.309 123.79C246.298 124.266 246.19 124.663 245.986 124.98C245.793 125.286 245.538 125.535 245.221 125.728C244.915 125.909 244.581 126.034 244.218 126.102C243.855 126.181 243.515 126.221 243.198 126.221C242.79 126.221 242.365 126.198 241.923 126.153C241.492 126.108 241.028 126.011 240.529 125.864L240.784 124.64C241.294 124.776 241.759 124.878 242.178 124.946C242.597 125.003 242.943 125.031 243.215 125.031C243.419 125.031 243.617 125.008 243.81 124.963C244.014 124.918 244.195 124.855 244.354 124.776C244.513 124.685 244.637 124.572 244.728 124.436C244.83 124.3 244.881 124.147 244.881 123.977C244.87 123.66 244.762 123.393 244.558 123.178C244.354 122.951 244.088 122.753 243.759 122.583C243.442 122.402 243.096 122.226 242.722 122.056C242.359 121.875 242.014 121.671 241.685 121.444C241.368 121.206 241.101 120.928 240.886 120.611C240.671 120.282 240.563 119.88 240.563 119.404C240.563 119.064 240.648 118.764 240.818 118.503C240.999 118.231 241.226 118.01 241.498 117.84C241.781 117.659 242.087 117.523 242.416 117.432C242.756 117.33 243.085 117.279 243.402 117.279C243.731 117.279 244.099 117.307 244.507 117.364C244.915 117.409 245.385 117.5 245.918 117.636L245.68 118.843ZM247.227 117.449H248.655L249.658 121.308C249.749 121.637 249.828 121.988 249.896 122.362C249.975 122.725 250.049 123.065 250.117 123.382C250.185 123.756 250.259 124.124 250.338 124.487H250.355C250.434 124.124 250.525 123.756 250.627 123.382C250.718 123.065 250.814 122.725 250.916 122.362C251.018 121.988 251.12 121.637 251.222 121.308L252.429 117.449H254.248L255.217 121.308C255.296 121.637 255.376 121.988 255.455 122.362C255.546 122.725 255.619 123.065 255.676 123.382C255.744 123.756 255.812 124.124 255.88 124.487H255.897C255.999 124.113 256.107 123.739 256.22 123.365C256.311 123.048 256.413 122.708 256.526 122.345C256.639 121.971 256.747 121.625 256.849 121.308L258.039 117.449H259.45L256.645 126H255.132L253.908 121.308C253.795 120.877 253.698 120.492 253.619 120.152C253.551 119.801 253.489 119.506 253.432 119.268C253.375 118.985 253.324 118.735 253.279 118.52H253.245C253.2 118.735 253.143 118.985 253.075 119.268C253.018 119.506 252.939 119.801 252.837 120.152C252.735 120.492 252.622 120.877 252.497 121.308L251.052 126H249.539L247.227 117.449ZM261.864 121.767C261.864 122.866 262.108 123.688 262.595 124.232C263.094 124.765 263.762 125.031 264.601 125.031C265.428 125.031 266.074 124.765 266.539 124.232C267.004 123.699 267.236 122.9 267.236 121.835C267.236 120.702 266.987 119.857 266.488 119.302C266.001 118.747 265.332 118.469 264.482 118.469C263.632 118.469 262.98 118.747 262.527 119.302C262.085 119.846 261.864 120.668 261.864 121.767ZM260.419 121.75C260.419 120.889 260.555 120.175 260.827 119.608C261.099 119.03 261.445 118.571 261.864 118.231C262.283 117.88 262.731 117.636 263.207 117.5C263.694 117.353 264.153 117.279 264.584 117.279C264.992 117.279 265.434 117.347 265.91 117.483C266.397 117.608 266.845 117.84 267.253 118.18C267.661 118.509 268.001 118.956 268.273 119.523C268.545 120.078 268.681 120.787 268.681 121.648C268.681 122.543 268.539 123.286 268.256 123.875C267.984 124.464 267.638 124.935 267.219 125.286C266.8 125.626 266.346 125.864 265.859 126C265.372 126.147 264.918 126.221 264.499 126.221C264.068 126.221 263.615 126.153 263.139 126.017C262.663 125.881 262.221 125.649 261.813 125.32C261.416 124.98 261.082 124.521 260.81 123.943C260.549 123.365 260.419 122.634 260.419 121.75ZM270.674 118.826C270.674 118.565 270.645 118.157 270.589 117.602L271.847 117.432L271.983 118.673H272C272.204 118.412 272.402 118.186 272.595 117.993C272.787 117.8 272.986 117.636 273.19 117.5C273.405 117.353 273.609 117.279 273.802 117.279C274.062 117.268 274.425 117.296 274.89 117.364L274.584 118.673C274.21 118.605 273.949 118.577 273.802 118.588C273.609 118.588 273.405 118.679 273.19 118.86C272.974 119.041 272.787 119.234 272.629 119.438C272.425 119.687 272.226 119.971 272.034 120.288V126H270.674V118.826ZM281.473 118.724C281.065 118.611 280.748 118.543 280.521 118.52C280.294 118.486 280.062 118.469 279.824 118.469C279.348 118.469 278.94 118.554 278.6 118.724C278.26 118.894 277.977 119.132 277.75 119.438C277.535 119.733 277.376 120.078 277.274 120.475C277.172 120.86 277.121 121.274 277.121 121.716C277.121 122.113 277.161 122.509 277.24 122.906C277.331 123.303 277.467 123.66 277.648 123.977C277.829 124.294 278.05 124.549 278.311 124.742C278.572 124.935 278.883 125.031 279.246 125.031C279.495 125.031 279.75 124.986 280.011 124.895C280.283 124.804 280.532 124.702 280.759 124.589C280.986 124.464 281.224 124.311 281.473 124.13V118.724ZM281.49 125.32C281.229 125.501 280.974 125.654 280.725 125.779C280.487 125.892 280.221 125.994 279.926 126.085C279.643 126.176 279.365 126.221 279.093 126.221C278.028 126.221 277.189 125.847 276.577 125.099C275.976 124.34 275.676 123.235 275.676 121.784C275.676 120.923 275.812 120.203 276.084 119.625C276.367 119.047 276.719 118.588 277.138 118.248C277.557 117.897 278.005 117.647 278.481 117.5C278.968 117.353 279.416 117.279 279.824 117.279C280.028 117.279 280.243 117.296 280.47 117.33C280.697 117.353 281.031 117.421 281.473 117.534V113.267L282.833 113.114V124.453C282.833 124.612 282.833 124.782 282.833 124.963C282.844 125.133 282.856 125.303 282.867 125.473C282.89 125.643 282.912 125.819 282.935 126L281.626 126.136L281.49 125.32Z" fill="#636363"/>
<path d="M194.99 90.1456L190.551 87.9202C189.886 87.5868 189.102 88.0703 189.102 88.8141V92.6145C189.102 93.2458 188.525 93.7191 187.906 93.595L182.94 92.5992C182.321 92.4751 181.743 92.9484 181.743 93.5797V97.6114C181.743 98.2943 181.074 98.7763 180.426 98.5598L173.652 96.2958C173.217 96.1504 172.937 95.728 172.972 95.2709L173.609 86.9648C173.634 86.6454 173.81 86.357 174.083 86.1893L195.985 72.7297C196.281 72.5477 196.461 72.2252 196.461 71.8777V63.4101C196.461 63.0592 196.645 62.734 196.946 62.5532L210.757 54.2442C211.024 54.0841 211.347 54.0542 211.633 54.1758C217.317 56.5949 227.525 64.3494 226.671 77.8332C226.651 78.1491 226.475 78.4382 226.206 78.6052L211.675 87.6245C211.369 87.8145 210.984 87.8251 210.668 87.6522L203.085 83.5049M232.403 68.1019L236.936 65.0583M237.476 57.4951L242.087 53.9903M226.633 56.2039L233.325 51.5" stroke="#6401C7" stroke-width="2"/>
<circle cx="217.184" cy="67.64" r="2.76699" fill="#6401C7"/>
<path d="M62.278 204.552L64.168 205.218L64.33 205.164V203.112H66.022V205.164L66.166 205.218L68.074 204.552L68.632 206.154L66.706 206.838L66.652 207L67.948 208.764L66.58 209.754L65.248 207.954H65.104L63.772 209.754L62.404 208.764L63.7 207L63.646 206.838L61.72 206.154L62.278 204.552ZM70.6276 204.552L72.5176 205.218L72.6796 205.164V203.112H74.3716V205.164L74.5156 205.218L76.4236 204.552L76.9816 206.154L75.0556 206.838L75.0016 207L76.2976 208.764L74.9296 209.754L73.5976 207.954H73.4536L72.1216 209.754L70.7536 208.764L72.0496 207L71.9956 206.838L70.0696 206.154L70.6276 204.552ZM78.9772 204.552L80.8672 205.218L81.0292 205.164V203.112H82.7212V205.164L82.8652 205.218L84.7732 204.552L85.3312 206.154L83.4052 206.838L83.3512 207L84.6472 208.764L83.2792 209.754L81.9472 207.954H81.8032L80.4712 209.754L79.1032 208.764L80.3992 207L80.3452 206.838L78.4192 206.154L78.9772 204.552ZM87.3268 204.552L89.2168 205.218L89.3788 205.164V203.112H91.0708V205.164L91.2148 205.218L93.1228 204.552L93.6808 206.154L91.7548 206.838L91.7008 207L92.9968 208.764L91.6288 209.754L90.2968 207.954H90.1528L88.8208 209.754L87.4528 208.764L88.7488 207L88.6948 206.838L86.7688 206.154L87.3268 204.552ZM95.6764 204.552L97.5664 205.218L97.7284 205.164V203.112H99.4204V205.164L99.5644 205.218L101.472 204.552L102.03 206.154L100.104 206.838L100.05 207L101.346 208.764L99.9784 209.754L98.6464 207.954H98.5024L97.1704 209.754L95.8024 208.764L97.0984 207L97.0444 206.838L95.1184 206.154L95.6764 204.552ZM104.026 204.552L105.916 205.218L106.078 205.164V203.112H107.77V205.164L107.914 205.218L109.822 204.552L110.38 206.154L108.454 206.838L108.4 207L109.696 208.764L108.328 209.754L106.996 207.954H106.852L105.52 209.754L104.152 208.764L105.448 207L105.394 206.838L103.468 206.154L104.026 204.552ZM112.376 204.552L114.266 205.218L114.428 205.164V203.112H116.12V205.164L116.264 205.218L118.172 204.552L118.73 206.154L116.804 206.838L116.75 207L118.046 208.764L116.678 209.754L115.346 207.954H115.202L113.87 209.754L112.502 208.764L113.798 207L113.744 206.838L111.818 206.154L112.376 204.552ZM120.725 204.552L122.615 205.218L122.777 205.164V203.112H124.469V205.164L124.613 205.218L126.521 204.552L127.079 206.154L125.153 206.838L125.099 207L126.395 208.764L125.027 209.754L123.695 207.954H123.551L122.219 209.754L120.851 208.764L122.147 207L122.093 206.838L120.167 206.154L120.725 204.552ZM129.075 204.552L130.965 205.218L131.127 205.164V203.112H132.819V205.164L132.963 205.218L134.871 204.552L135.429 206.154L133.503 206.838L133.449 207L134.745 208.764L133.377 209.754L132.045 207.954H131.901L130.569 209.754L129.201 208.764L130.497 207L130.443 206.838L128.517 206.154L129.075 204.552ZM137.424 204.552L139.314 205.218L139.476 205.164V203.112H141.168V205.164L141.312 205.218L143.22 204.552L143.778 206.154L141.852 206.838L141.798 207L143.094 208.764L141.726 209.754L140.394 207.954H140.25L138.918 209.754L137.55 208.764L138.846 207L138.792 206.838L136.866 206.154L137.424 204.552ZM145.774 204.552L147.664 205.218L147.826 205.164V203.112H149.518V205.164L149.662 205.218L151.57 204.552L152.128 206.154L150.202 206.838L150.148 207L151.444 208.764L150.076 209.754L148.744 207.954H148.6L147.268 209.754L145.9 208.764L147.196 207L147.142 206.838L145.216 206.154L145.774 204.552ZM154.124 204.552L156.014 205.218L156.176 205.164V203.112H157.868V205.164L158.012 205.218L159.92 204.552L160.478 206.154L158.552 206.838L158.498 207L159.794 208.764L158.426 209.754L157.094 207.954H156.95L155.618 209.754L154.25 208.764L155.546 207L155.492 206.838L153.566 206.154L154.124 204.552Z" fill="black"/>
<path d="M62.278 289.552L64.168 290.218L64.33 290.164V288.112H66.022V290.164L66.166 290.218L68.074 289.552L68.632 291.154L66.706 291.838L66.652 292L67.948 293.764L66.58 294.754L65.248 292.954H65.104L63.772 294.754L62.404 293.764L63.7 292L63.646 291.838L61.72 291.154L62.278 289.552ZM70.6276 289.552L72.5176 290.218L72.6796 290.164V288.112H74.3716V290.164L74.5156 290.218L76.4236 289.552L76.9816 291.154L75.0556 291.838L75.0016 292L76.2976 293.764L74.9296 294.754L73.5976 292.954H73.4536L72.1216 294.754L70.7536 293.764L72.0496 292L71.9956 291.838L70.0696 291.154L70.6276 289.552ZM78.9772 289.552L80.8672 290.218L81.0292 290.164V288.112H82.7212V290.164L82.8652 290.218L84.7732 289.552L85.3312 291.154L83.4052 291.838L83.3512 292L84.6472 293.764L83.2792 294.754L81.9472 292.954H81.8032L80.4712 294.754L79.1032 293.764L80.3992 292L80.3452 291.838L78.4192 291.154L78.9772 289.552ZM87.3268 289.552L89.2168 290.218L89.3788 290.164V288.112H91.0708V290.164L91.2148 290.218L93.1228 289.552L93.6808 291.154L91.7548 291.838L91.7008 292L92.9968 293.764L91.6288 294.754L90.2968 292.954H90.1528L88.8208 294.754L87.4528 293.764L88.7488 292L88.6948 291.838L86.7688 291.154L87.3268 289.552ZM95.6764 289.552L97.5664 290.218L97.7284 290.164V288.112H99.4204V290.164L99.5644 290.218L101.472 289.552L102.03 291.154L100.104 291.838L100.05 292L101.346 293.764L99.9784 294.754L98.6464 292.954H98.5024L97.1704 294.754L95.8024 293.764L97.0984 292L97.0444 291.838L95.1184 291.154L95.6764 289.552ZM104.026 289.552L105.916 290.218L106.078 290.164V288.112H107.77V290.164L107.914 290.218L109.822 289.552L110.38 291.154L108.454 291.838L108.4 292L109.696 293.764L108.328 294.754L106.996 292.954H106.852L105.52 294.754L104.152 293.764L105.448 292L105.394 291.838L103.468 291.154L104.026 289.552ZM112.376 289.552L114.266 290.218L114.428 290.164V288.112H116.12V290.164L116.264 290.218L118.172 289.552L118.73 291.154L116.804 291.838L116.75 292L118.046 293.764L116.678 294.754L115.346 292.954H115.202L113.87 294.754L112.502 293.764L113.798 292L113.744 291.838L111.818 291.154L112.376 289.552ZM120.725 289.552L122.615 290.218L122.777 290.164V288.112H124.469V290.164L124.613 290.218L126.521 289.552L127.079 291.154L125.153 291.838L125.099 292L126.395 293.764L125.027 294.754L123.695 292.954H123.551L122.219 294.754L120.851 293.764L122.147 292L122.093 291.838L120.167 291.154L120.725 289.552ZM129.075 289.552L130.965 290.218L131.127 290.164V288.112H132.819V290.164L132.963 290.218L134.871 289.552L135.429 291.154L133.503 291.838L133.449 292L134.745 293.764L133.377 294.754L132.045 292.954H131.901L130.569 294.754L129.201 293.764L130.497 292L130.443 291.838L128.517 291.154L129.075 289.552ZM137.424 289.552L139.314 290.218L139.476 290.164V288.112H141.168V290.164L141.312 290.218L143.22 289.552L143.778 291.154L141.852 291.838L141.798 292L143.094 293.764L141.726 294.754L140.394 292.954H140.25L138.918 294.754L137.55 293.764L138.846 292L138.792 291.838L136.866 291.154L137.424 289.552ZM145.774 289.552L147.664 290.218L147.826 290.164V288.112H149.518V290.164L149.662 290.218L151.57 289.552L152.128 291.154L150.202 291.838L150.148 292L151.444 293.764L150.076 294.754L148.744 292.954H148.6L147.268 294.754L145.9 293.764L147.196 292L147.142 291.838L145.216 291.154L145.774 289.552ZM154.124 289.552L156.014 290.218L156.176 290.164V288.112H157.868V290.164L158.012 290.218L159.92 289.552L160.478 291.154L158.552 291.838L158.498 292L159.794 293.764L158.426 294.754L157.094 292.954H156.95L155.618 294.754L154.25 293.764L155.546 292L155.492 291.838L153.566 291.154L154.124 289.552Z" fill="black"/>
</g>
<defs>
<filter id="filter0_d" x="127" y="628" width="164" height="75" filterUnits="userSpaceOnUse" color-interpolation-filters="sRGB">
<feFlood flood-opacity="0" result="BackgroundImageFix"/>
<feColorMatrix in="SourceAlpha" type="matrix" values="0 0 0 0 0 0 0 0 0 0 0 0 0 0 0 0 0 0 127 0"/>
<feOffset/>
<feGaussianBlur stdDeviation="7.5"/>
<feColorMatrix type="matrix" values="0 0 0 0 0 0 0 0 0 0 0 0 0 0 0 0 0 0 0.25 0"/>
<feBlend mode="normal" in2="BackgroundImageFix" result="effect1_dropShadow"/>
<feBlend mode="normal" in="SourceGraphic" in2="effect1_dropShadow" result="shape"/>
</filter>
<clipPath id="clip0">
<rect width="411" height="731" fill="white"/>
</clipPath>
</defs>
</svg>
